<svg width="50" height="50" viewBox="0 0 50 50" fill="none" xmlns="http://www.w3.org/2000/svg">
<path fill-rule="evenodd" clip-rule="evenodd" d="M33.9188 25.4561C34.0643 25.6013 34.1797 25.7737 34.2585 25.9635C34.3373 26.1533 34.3778 26.3568 34.3778 26.5624C34.3778 26.7679 34.3373 26.9714 34.2585 27.1612C34.1797 27.351 34.0643 27.5235 33.9188 27.6686L24.5438 37.0436C24.3986 37.1891 24.2262 37.3046 24.0364 37.3833C23.8465 37.4621 23.643 37.5027 23.4375 37.5027C23.232 37.5027 23.0285 37.4621 22.8387 37.3833C22.6488 37.3046 22.4764 37.1891 22.3313 37.0436L17.6438 32.3561C17.4985 32.2108 17.3833 32.0384 17.3046 31.8486C17.226 31.6588 17.1855 31.4553 17.1855 31.2499C17.1855 31.0444 17.226 30.841 17.3046 30.6512C17.3833 30.4614 17.4985 30.2889 17.6438 30.1436C17.9372 29.8502 18.3351 29.6854 18.75 29.6854C18.9555 29.6854 19.1589 29.7259 19.3487 29.8045C19.5385 29.8831 19.711 29.9983 19.8563 30.1436L23.4375 33.728L31.7063 25.4561C31.8514 25.3106 32.0238 25.1952 32.2137 25.1164C32.4035 25.0376 32.607 24.9971 32.8125 24.9971C33.018 24.9971 33.2215 25.0376 33.4114 25.1164C33.6012 25.1952 33.7736 25.3106 33.9188 25.4561V25.4561Z" fill="white"/>
<path d="M25 3.125C27.072 3.125 29.0591 3.9481 30.5243 5.41323C31.9894 6.87836 32.8125 8.8655 32.8125 10.9375V12.5H17.1875V10.9375C17.1875 8.8655 18.0106 6.87836 19.4757 5.41323C20.9409 3.9481 22.928 3.125 25 3.125V3.125ZM35.9375 12.5V10.9375C35.9375 8.03669 34.7852 5.2547 32.734 3.20352C30.6828 1.15234 27.9008 0 25 0C22.0992 0 19.3172 1.15234 17.266 3.20352C15.2148 5.2547 14.0625 8.03669 14.0625 10.9375V12.5H3.125V43.75C3.125 45.4076 3.78348 46.9973 4.95558 48.1694C6.12769 49.3415 7.7174 50 9.375 50H40.625C42.2826 50 43.8723 49.3415 45.0444 48.1694C46.2165 46.9973 46.875 45.4076 46.875 43.75V12.5H35.9375ZM6.25 15.625H43.75V43.75C43.75 44.5788 43.4208 45.3737 42.8347 45.9597C42.2487 46.5458 41.4538 46.875 40.625 46.875H9.375C8.5462 46.875 7.75134 46.5458 7.16529 45.9597C6.57924 45.3737 6.25 44.5788 6.25 43.75V15.625Z" fill="white"/>
</svg>
