<svg width="256" height="174" viewBox="0 0 256 174" fill="none" xmlns="http://www.w3.org/2000/svg">
<path d="M29.0241 110C29.5704 110 30.1167 109.454 30.663 108.361C31.2094 107.268 31.4825 105.473 31.4825 102.976V46.7832C31.4825 44.2857 31.2094 42.5297 30.663 41.5151C30.1167 40.4225 29.5704 39.8371 29.0241 39.7591H94.9335V42.1005L97.2748 53.339C95.3237 52.4805 91.8897 51.583 86.9728 50.6464C82.056 49.6318 76.1245 49.1245 69.1785 49.1245H49.394C47.0526 49.1245 45.6478 49.3197 45.1795 49.7099C44.7893 50.0221 44.5942 50.9976 44.5942 52.6366V65.9824C44.5942 67.6994 44.7893 68.714 45.1795 69.0261C45.6478 69.3383 47.0136 69.4944 49.2769 69.4944H68.5931C73.1198 69.4944 76.7489 69.2603 79.4805 68.792C82.2901 68.2457 84.1242 67.6994 84.9827 67.153C84.4364 68.6359 83.89 70.548 83.3437 72.8894C82.8755 75.1527 82.6413 77.1429 82.6413 78.8599H49.2769C47.0136 78.8599 45.6478 79.016 45.1795 79.3281C44.7893 79.5623 44.5942 80.5769 44.5942 82.3719V96.8884C44.5942 98.6834 44.7893 99.737 45.1795 100.049C45.5697 100.361 46.9355 100.517 49.2769 100.517H83.3437C87.8704 100.517 91.4995 100.01 94.2311 98.9956C97.0407 97.903 98.8748 96.8493 99.7333 95.8348L97.3919 106.371V110H29.0241ZM145.811 111.171C137.304 111.171 129.772 110.78 123.216 110C116.661 109.22 111.939 108.439 109.051 107.659V105.317L106.71 92.791C107.802 94.0397 109.871 95.3665 112.914 96.7713C116.036 98.1761 120.173 99.3858 125.324 100.4C130.475 101.337 136.601 101.805 143.703 101.805C150.103 101.805 154.942 101.376 158.22 100.517C161.576 99.5809 163.839 98.3322 165.01 96.7713C166.258 95.1323 166.883 93.2593 166.883 91.152C166.883 87.4058 164.58 84.7523 159.976 83.1914C155.449 81.6305 148.737 80.3037 139.84 79.2111C132.114 78.1965 125.909 76.8697 121.226 75.2308C116.544 73.5138 113.149 71.2504 111.041 68.4408C108.934 65.6312 107.88 62.0801 107.88 57.7876C107.88 52.3244 110.378 47.7588 115.373 44.0906C120.368 40.4225 128.133 38.5884 138.669 38.5884C146.786 38.5884 153.849 38.9786 159.859 39.7591C165.868 40.5395 170.122 41.32 172.619 42.1005V44.4418L176.131 54.978C174.492 53.9634 171.956 52.9098 168.522 51.8171C165.166 50.7245 161.107 49.827 156.347 49.1245C151.586 48.3441 146.279 47.9539 140.425 47.9539C133.089 47.9539 128.016 48.7343 125.207 50.2952C122.397 51.8561 120.992 54.1195 120.992 57.0852C120.992 60.9875 123.138 63.7581 127.431 65.397C131.723 66.9579 137.85 68.2067 145.811 69.1432C154.239 70.0798 160.951 71.4065 165.946 73.1235C170.941 74.8405 174.531 77.1429 176.717 80.0305C178.902 82.9182 179.994 86.6644 179.994 91.2691C179.994 97.4347 177.107 102.313 171.331 105.903C165.556 109.415 157.049 111.171 145.811 111.171Z" fill="white"/>
<path d="M24.0395 160H22.4675C23.0299 157.47 24.1673 151.667 25.8798 142.593L26.7808 137.82C25.1705 139.801 23.2152 142.466 20.9147 145.814C18.6271 149.162 15.4704 153.891 11.4446 160H7.89814C8.70329 158.479 9.57234 156.179 10.5053 153.099C12.3073 147.207 13.2083 142.625 13.2083 139.354C13.2083 135.456 12.0261 133.507 9.6618 133.507C8.62661 133.507 7.68727 133.775 6.84378 134.312C6.00029 134.836 5.31655 135.507 4.79256 136.325C4.26858 137.143 3.83405 138.082 3.48898 139.143C2.84998 141.034 2.53047 142.958 2.53047 144.913C2.53047 146.868 2.81803 148.722 3.39313 150.472C3.96824 152.223 4.8948 153.527 6.17282 154.383L5.27182 155.131C3.91712 153.993 2.92027 152.492 2.28126 150.626C1.65503 148.76 1.34192 147.047 1.34192 145.488C1.34192 143.929 1.43777 142.593 1.62947 141.482C1.82117 140.37 2.13429 139.264 2.56881 138.165C3.01612 137.053 3.55928 136.076 4.19828 135.232C4.83729 134.376 5.64883 133.686 6.63291 133.162C7.62976 132.625 8.73524 132.357 9.94936 132.357C11.1763 132.357 12.2434 132.567 13.1508 132.989C14.0582 133.398 14.7675 133.98 15.2787 134.734C16.25 136.165 16.7356 138.056 16.7356 140.408C16.7356 144.153 15.3873 149.22 12.6907 155.61C16.9082 148.517 20.2182 143.392 22.6209 140.235C24.7935 137.373 26.8 135.181 28.6403 133.66L30.0014 134.293L26.5508 156.645C29.3241 154.767 31.5798 152.472 33.3179 149.763C35.0688 147.054 36.2318 144.172 36.8069 141.117C35.5544 140.529 34.4809 139.75 33.5863 138.779C32.6917 137.807 32.2444 136.804 32.2444 135.769C32.2444 134.721 32.5191 133.89 33.0687 133.277C33.631 132.663 34.2956 132.357 35.0624 132.357C35.842 132.357 36.4618 132.497 36.9219 132.778C37.3948 133.059 37.759 133.443 38.0146 133.928C38.513 134.861 38.7622 135.922 38.7622 137.111C38.7622 138.299 38.66 139.475 38.4555 140.638C39.3757 141.111 40.3662 141.456 41.4269 141.673L41.1585 142.574C39.5354 142.165 38.5514 141.891 38.2063 141.75C37.4012 145.571 35.81 149.041 33.4329 152.159C31.0558 155.265 27.9247 157.878 24.0395 160ZM34.3723 135.941C34.5128 137.411 35.4138 138.727 37.0753 139.89C37.2797 138.894 37.382 138.069 37.382 137.417C37.382 136.766 37.3692 136.331 37.3436 136.114C37.3309 135.897 37.2861 135.615 37.2094 135.27C37.0561 134.555 36.6343 134.197 35.9442 134.197C35.4969 134.197 35.1199 134.357 34.8132 134.676C34.5192 134.996 34.3723 135.373 34.3723 135.807V135.941ZM39.4524 156.223C39.529 157.693 40.5195 158.428 42.4238 158.428C43.1267 158.428 43.8551 158.23 44.6092 157.834C45.376 157.425 45.9958 156.946 46.4687 156.396L47.293 156.933C46.2322 158.709 44.5389 159.796 42.2129 160.192C41.7017 160.268 41.2096 160.307 40.7368 160.307C39.3565 160.307 38.2063 159.853 37.2861 158.946C36.366 158.025 35.9059 156.907 35.9059 155.591C35.9059 154.274 36.3084 153.06 37.1136 151.948C37.9187 150.824 38.922 149.955 40.1233 149.341C41.3374 148.728 42.5324 148.421 43.7082 148.421C44.8839 148.421 45.9 148.69 46.7562 149.226C47.6253 149.763 48.0662 150.485 48.079 151.393C48.1045 152.3 47.8425 153.086 47.293 153.75C46.7435 154.402 46.0469 154.901 45.2034 155.246C43.5292 155.923 41.887 156.262 40.2767 156.262L39.4524 156.223ZM39.3373 155.169C40.7559 155.118 41.8934 154.894 42.7496 154.498C43.6187 154.089 44.2194 153.629 44.5517 153.118C44.8967 152.594 45.0692 152.051 45.0692 151.488C45.0692 150.913 44.9223 150.492 44.6283 150.223C44.3344 149.942 44.0213 149.801 43.689 149.801C42.8711 149.801 42.117 150.089 41.4269 150.664C40.7496 151.226 40.232 151.917 39.8741 152.734C39.5163 153.54 39.3373 154.351 39.3373 155.169ZM60.6163 157.757C59.9901 158.511 59.1594 159.125 58.1242 159.597C57.089 160.07 55.894 160.307 54.5394 160.307C53.1847 160.307 52.0344 159.904 51.0887 159.099C50.1558 158.294 49.6893 157.271 49.6893 156.032C49.6893 155.891 49.7148 155.629 49.766 155.246C50.2899 151.731 51.2421 147.884 52.6223 143.705C54.0026 139.513 55.4851 136.389 57.0698 134.331H60.3288C59.3703 135.405 58.22 137.686 56.8781 141.175C55.549 144.664 54.4755 148.102 53.6575 151.488C55.2039 149.444 56.942 148.421 58.8718 148.421C60.0732 148.421 60.9933 148.83 61.6323 149.648C62.2841 150.453 62.61 151.38 62.61 152.428C62.61 153.476 62.4375 154.441 62.0924 155.322C61.7474 156.192 61.2553 157.003 60.6163 157.757ZM53.0632 155.246C52.961 155.783 52.9099 156.307 52.9099 156.818C52.9099 157.316 53.0952 157.827 53.4658 158.351C53.8364 158.863 54.4052 159.118 55.172 159.118C55.9388 159.118 56.6417 158.786 57.2807 158.121C58.5076 156.831 59.121 155.124 59.121 153.003C59.121 152.134 58.9741 151.425 58.6801 150.875C58.3862 150.313 57.9325 150.031 57.319 150.031C56.7056 150.031 55.9388 150.524 55.0186 151.508C54.1112 152.492 53.4594 153.738 53.0632 155.246ZM76.3743 152.504L75.0515 153.08C73.6585 150.383 72.962 147.782 72.962 145.277C72.962 142.172 73.9588 139.513 75.9525 137.302C77.8823 135.155 80.285 133.698 83.1605 132.932C84.5791 132.548 86.068 132.357 87.6272 132.357C89.1864 132.357 90.605 132.516 91.883 132.836C93.161 133.155 94.3496 133.769 95.4487 134.676C96.6372 133.705 98.3114 133.219 100.471 133.219L100.855 134.408C98.7971 134.817 97.4232 135.29 96.7331 135.826C98.075 137.066 99.091 138.689 99.7811 140.696C100.471 142.689 100.816 144.619 100.816 146.485C100.816 148.338 100.708 149.891 100.49 151.143C100.273 152.396 99.9153 153.578 99.4169 154.69C98.9313 155.789 98.3178 156.728 97.5766 157.508C96.0046 159.208 93.9726 160.058 91.4804 160.058C88.9883 160.058 86.3045 159.438 83.4289 158.198C82.7516 158.709 81.7867 159.169 80.5342 159.578C79.2945 159.987 78.1315 160.192 77.0452 160.192C74.8598 160.192 73.7671 159.342 73.7671 157.642C73.7671 156.645 74.323 155.814 75.4349 155.15C76.5468 154.473 77.9334 154.134 79.5949 154.134C81.2691 154.134 82.9177 154.53 84.5408 155.322C85.9722 153.469 87.0968 150.894 87.9148 147.597C88.247 146.293 88.6177 144.971 89.0266 143.629C89.9724 140.523 91.6913 137.865 94.1834 135.654C93.5061 135.028 92.6115 134.548 91.4996 134.216C90.4005 133.871 89.327 133.698 88.279 133.698C85.838 133.698 83.6462 134.178 81.7036 135.136C79.7738 136.082 78.2274 137.513 77.0644 139.43C75.9014 141.347 75.3199 143.603 75.3199 146.197C75.3199 148.076 75.6714 150.178 76.3743 152.504ZM98.5734 146.542C98.5734 144.677 98.2859 142.887 97.7107 141.175C97.1484 139.462 96.42 138.146 95.5253 137.226C94.7585 138.402 94.1259 140.172 93.6275 142.536C92.7712 146.689 91.3334 150.057 89.3142 152.639C88.3684 153.853 87.2502 154.965 85.9594 155.974C88.426 157.252 90.5283 157.891 92.2664 157.891C94.0301 157.891 95.372 157.297 96.2922 156.108C97.2379 154.894 97.8577 153.457 98.1517 151.795C98.4328 150.159 98.5734 148.408 98.5734 146.542ZM82.1445 157.297C80.3936 156.569 78.7578 156.204 77.2369 156.204C75.7289 156.204 74.9748 156.671 74.9748 157.604C74.9748 158.396 75.6777 158.792 77.0836 158.792C77.8759 158.792 78.7386 158.658 79.6715 158.39C80.6173 158.109 81.4416 157.744 82.1445 157.297ZM105.398 156.223C105.475 157.693 106.465 158.428 108.369 158.428C109.072 158.428 109.801 158.23 110.555 157.834C111.322 157.425 111.941 156.946 112.414 156.396L113.239 156.933C112.178 158.709 110.485 159.796 108.159 160.192C107.647 160.268 107.155 160.307 106.682 160.307C105.302 160.307 104.152 159.853 103.232 158.946C102.312 158.025 101.852 156.907 101.852 155.591C101.852 154.274 102.254 153.06 103.059 151.948C103.864 150.824 104.868 149.955 106.069 149.341C107.283 148.728 108.478 148.421 109.654 148.421C110.83 148.421 111.846 148.69 112.702 149.226C113.571 149.763 114.012 150.485 114.025 151.393C114.05 152.3 113.788 153.086 113.239 153.75C112.689 154.402 111.993 154.901 111.149 155.246C109.475 155.923 107.833 156.262 106.222 156.262L105.398 156.223ZM105.283 155.169C106.702 155.118 107.839 154.894 108.695 154.498C109.564 154.089 110.165 153.629 110.497 153.118C110.842 152.594 111.015 152.051 111.015 151.488C111.015 150.913 110.868 150.492 110.574 150.223C110.28 149.942 109.967 149.801 109.635 149.801C108.817 149.801 108.063 150.089 107.373 150.664C106.695 151.226 106.178 151.917 105.82 152.734C105.462 153.54 105.283 154.351 105.283 155.169ZM120.619 158.16C121.706 158.16 122.805 157.776 123.916 157.009C125.028 156.243 125.917 155.348 126.581 154.326C127.246 153.29 127.578 152.37 127.578 151.565C127.501 151.667 127.22 151.718 126.735 151.718C126.262 151.718 125.878 151.565 125.584 151.258C125.29 150.939 125.143 150.562 125.143 150.127C125.143 149.68 125.31 149.284 125.642 148.939C125.974 148.594 126.434 148.421 127.022 148.421C128.645 148.421 129.457 149.309 129.457 151.086C129.457 151.891 129.207 152.811 128.709 153.846C128.211 154.882 127.527 155.885 126.658 156.856C125.802 157.827 124.69 158.645 123.322 159.31C121.967 159.974 120.53 160.307 119.009 160.307C117.501 160.307 116.747 159.572 116.747 158.102C116.747 157.271 116.983 156.147 117.456 154.728C117.942 153.297 118.185 152.383 118.185 151.987C118.185 151.591 118.07 151.393 117.84 151.393C117.494 151.393 116.811 152.223 115.788 153.885L114.542 153.175C116.421 150.006 118.146 148.421 119.718 148.421C120.14 148.421 120.504 148.581 120.811 148.9C121.13 149.207 121.29 149.718 121.29 150.434C121.29 151.137 121.035 152.441 120.523 154.345C120.012 156.249 119.757 157.259 119.757 157.374C119.757 157.898 120.044 158.16 120.619 158.16ZM133.885 156.223C133.962 157.693 134.952 158.428 136.856 158.428C137.559 158.428 138.288 158.23 139.042 157.834C139.809 157.425 140.428 156.946 140.901 156.396L141.726 156.933C140.665 158.709 138.972 159.796 136.646 160.192C136.134 160.268 135.642 160.307 135.169 160.307C133.789 160.307 132.639 159.853 131.719 158.946C130.799 158.025 130.339 156.907 130.339 155.591C130.339 154.274 130.741 153.06 131.546 151.948C132.351 150.824 133.355 149.955 134.556 149.341C135.77 148.728 136.965 148.421 138.141 148.421C139.317 148.421 140.333 148.69 141.189 149.226C142.058 149.763 142.499 150.485 142.512 151.393C142.537 152.3 142.275 153.086 141.726 153.75C141.176 154.402 140.48 154.901 139.636 155.246C137.962 155.923 136.32 156.262 134.709 156.262L133.885 156.223ZM133.77 155.169C135.189 155.118 136.326 154.894 137.182 154.498C138.051 154.089 138.652 153.629 138.984 153.118C139.329 152.594 139.502 152.051 139.502 151.488C139.502 150.913 139.355 150.492 139.061 150.223C138.767 149.942 138.454 149.801 138.122 149.801C137.304 149.801 136.55 150.089 135.86 150.664C135.182 151.226 134.665 151.917 134.307 152.734C133.949 153.54 133.77 154.351 133.77 155.169ZM151.023 134.504H154.129C153.579 135.449 152.736 137.552 151.598 140.811C150.461 144.057 149.419 147.328 148.474 150.626C147.541 153.91 147.074 155.923 147.074 156.664C147.074 157.393 147.164 157.757 147.343 157.757C147.879 157.757 148.716 156.946 149.854 155.322L150.659 156.089C150.097 157.061 149.49 157.878 148.838 158.543C147.688 159.719 146.755 160.307 146.039 160.307C144.735 160.307 144.084 159.521 144.084 157.949C144.084 155.61 144.857 151.923 146.403 146.888C147.962 141.852 149.502 137.724 151.023 134.504ZM151.656 155.437C151.656 154.479 151.886 153.559 152.346 152.677C152.819 151.782 153.426 151.028 154.167 150.415C155.803 149.086 157.471 148.421 159.171 148.421C160.87 148.421 162.263 148.875 163.35 149.782C164.436 150.69 164.979 151.827 164.979 153.195C164.979 154.549 164.602 155.77 163.848 156.856C163.107 157.942 162.123 158.792 160.896 159.406C159.669 160.006 158.327 160.307 156.87 160.307C155.426 160.307 154.193 159.853 153.17 158.946C152.161 158.025 151.656 156.856 151.656 155.437ZM157.924 159.118C158.512 159.118 159.062 158.926 159.573 158.543C160.097 158.16 160.493 157.661 160.762 157.048C161.286 155.872 161.548 154.658 161.548 153.405C161.548 152.153 161.318 151.207 160.858 150.568C160.397 149.916 159.746 149.591 158.902 149.591C158.059 149.591 157.222 150.14 156.391 151.239C155.573 152.338 155.164 153.738 155.164 155.437C155.164 157.891 156.084 159.118 157.924 159.118ZM179.759 156.319C179.184 157.47 178.366 158.422 177.306 159.176C176.258 159.93 175.05 160.307 173.682 160.307C172.315 160.307 171.222 159.783 170.404 158.735C169.804 161.099 169.292 162.786 168.871 163.796C167.542 166.927 165.72 168.499 163.407 168.512C162.845 168.512 162.372 168.32 161.989 167.936C161.605 167.553 161.413 167.106 161.413 166.595C161.413 166.096 161.541 165.7 161.797 165.406C162.052 165.125 162.391 164.984 162.813 164.984C163.235 164.984 163.586 165.08 163.867 165.272C164.148 165.476 164.289 165.783 164.289 166.192C164.289 166.614 164.065 167.061 163.618 167.534L163.733 167.687C164.525 167.687 165.248 166.531 165.899 164.217C166.155 163.285 166.34 162.556 166.455 162.032C166.57 161.508 166.641 161.195 166.666 161.093L168.679 153.175C168.053 153.584 167.254 154.377 166.283 155.553L165.535 154.69C166.097 153.91 166.762 153.15 167.529 152.409C168.296 151.667 168.781 151.194 168.986 150.99C169.983 148.038 170.947 145.827 171.88 144.357C172.852 142.875 173.925 141.705 175.101 140.849L175.619 141.309C174.813 142.268 174.13 143.488 173.567 144.971C173.005 146.453 172.641 147.878 172.475 149.245C173.842 148.696 175.139 148.421 176.366 148.421C177.606 148.421 178.628 148.811 179.434 149.591C180.239 150.37 180.641 151.399 180.641 152.677C180.641 153.955 180.347 155.169 179.759 156.319ZM172.283 150.971L170.826 157.412C171.056 157.91 171.44 158.287 171.976 158.543C172.513 158.799 173.133 158.926 173.836 158.926C174.539 158.926 175.184 158.626 175.772 158.025C176.871 156.901 177.421 155.437 177.421 153.635C177.421 152.025 176.986 150.939 176.117 150.377C175.772 150.146 175.312 150.031 174.737 150.031C174.174 150.031 173.357 150.345 172.283 150.971ZM185.721 156.223C185.798 157.693 186.788 158.428 188.693 158.428C189.396 158.428 190.124 158.23 190.878 157.834C191.645 157.425 192.265 156.946 192.738 156.396L193.562 156.933C192.501 158.709 190.808 159.796 188.482 160.192C187.971 160.268 187.479 160.307 187.006 160.307C185.626 160.307 184.475 159.853 183.555 158.946C182.635 158.025 182.175 156.907 182.175 155.591C182.175 154.274 182.577 153.06 183.383 151.948C184.188 150.824 185.191 149.955 186.392 149.341C187.606 148.728 188.801 148.421 189.977 148.421C191.153 148.421 192.169 148.69 193.025 149.226C193.894 149.763 194.335 150.485 194.348 151.393C194.374 152.3 194.112 153.086 193.562 153.75C193.012 154.402 192.316 154.901 191.472 155.246C189.798 155.923 188.156 156.262 186.546 156.262L185.721 156.223ZM185.606 155.169C187.025 155.118 188.162 154.894 189.019 154.498C189.888 154.089 190.488 153.629 190.821 153.118C191.166 152.594 191.338 152.051 191.338 151.488C191.338 150.913 191.191 150.492 190.897 150.223C190.603 149.942 190.29 149.801 189.958 149.801C189.14 149.801 188.386 150.089 187.696 150.664C187.019 151.226 186.501 151.917 186.143 152.734C185.785 153.54 185.606 154.351 185.606 155.169ZM206.253 150.932C205.767 150.932 205.192 151.246 204.527 151.872C203.863 152.485 203.217 153.239 202.591 154.134C201.594 155.565 200.578 157.214 199.543 159.08L199.026 160H196.323C196.323 160 196.521 159.399 196.917 158.198C198.029 154.875 198.585 152.907 198.585 152.294C198.585 151.667 198.482 151.354 198.278 151.354C197.907 151.354 197.466 151.795 196.955 152.677C196.84 152.881 196.744 153.048 196.668 153.175C196.591 153.29 196.501 153.437 196.399 153.616C196.31 153.782 196.252 153.885 196.227 153.923L194.942 153.175C195.939 151.552 196.853 150.357 197.684 149.591C198.514 148.811 199.364 148.421 200.233 148.421C200.629 148.421 200.968 148.587 201.249 148.92C201.543 149.252 201.69 149.648 201.69 150.108C201.69 150.555 201.665 150.958 201.613 151.316C201.562 151.661 201.505 151.98 201.441 152.274C201.377 152.568 201.288 152.92 201.173 153.329C201.058 153.738 200.962 154.051 200.885 154.268C200.821 154.485 200.732 154.779 200.617 155.15C200.502 155.521 200.431 155.738 200.406 155.802C200.636 155.342 201.026 154.664 201.575 153.77C202.125 152.875 202.483 152.313 202.649 152.083C202.815 151.853 203.045 151.546 203.339 151.163C203.633 150.779 203.888 150.485 204.106 150.281C204.336 150.063 204.604 149.821 204.911 149.552C205.23 149.271 205.531 149.06 205.812 148.92C206.527 148.587 207.218 148.421 207.882 148.421C208.547 148.421 209.077 148.619 209.473 149.015C209.882 149.399 210.087 149.853 210.087 150.377C210.087 150.888 209.921 151.341 209.588 151.738C209.269 152.121 208.892 152.313 208.457 152.313C208.036 152.313 207.703 152.242 207.46 152.102C207.218 151.948 207.051 151.789 206.962 151.623C206.694 151.163 206.457 150.932 206.253 150.932ZM212.157 159.866C211.326 159.572 210.732 159.227 210.374 158.831C210.016 158.422 209.838 157.974 209.838 157.489C209.838 157.003 209.972 156.6 210.24 156.281C210.508 155.961 210.86 155.802 211.294 155.802C211.742 155.802 212.132 155.936 212.464 156.204C212.809 156.46 212.981 156.831 212.981 157.316C212.981 157.789 212.687 158.185 212.1 158.505C212.585 158.926 213.327 159.137 214.323 159.137C216.483 159.137 217.563 158.524 217.563 157.297C217.563 156.53 216.879 155.917 215.512 155.457C214.95 155.265 214.381 155.06 213.806 154.843C213.243 154.626 212.751 154.306 212.33 153.885C211.908 153.463 211.678 152.952 211.64 152.351C211.64 151.482 211.927 150.747 212.502 150.146C213.588 148.996 215.212 148.421 217.371 148.421C218.432 148.421 219.372 148.626 220.189 149.035C221.007 149.431 221.416 149.948 221.416 150.587C221.416 151.226 221.25 151.687 220.918 151.968C220.598 152.249 220.221 152.389 219.787 152.389C219.352 152.389 218.982 152.274 218.675 152.044C218.381 151.802 218.234 151.469 218.234 151.047C218.234 150.626 218.483 150.262 218.982 149.955C218.675 149.738 218.145 149.629 217.391 149.629C216.637 149.629 215.959 149.744 215.359 149.974C214.758 150.191 214.458 150.492 214.458 150.875C214.458 151.258 214.675 151.578 215.109 151.833C215.557 152.089 216.093 152.326 216.72 152.543C217.346 152.76 217.972 153.009 218.598 153.29C219.225 153.572 219.755 153.974 220.189 154.498C220.637 155.022 220.86 155.668 220.86 156.434C220.86 157.201 220.547 157.898 219.921 158.524C218.733 159.712 217.109 160.307 215.052 160.307C213.966 160.307 213.001 160.16 212.157 159.866Z" fill="white"/>
</svg>
