<svg width="50" height="50" viewBox="0 0 50 50" fill="none" xmlns="http://www.w3.org/2000/svg">
<path d="M30.2155 2.7L24.9998 0L19.7842 2.7L13.978 3.58125L11.3467 8.83125L7.16858 12.9562L8.12483 18.75L7.16858 24.5438L11.3467 28.6687L13.978 33.9188L19.7842 34.8L24.9998 37.5L30.2155 34.8L36.0217 33.9188L38.653 28.6687L42.8311 24.5438L41.8748 18.75L42.8311 12.9562L38.653 8.83125L36.0217 3.58125L30.2155 2.7ZM33.953 6.42812L36.0905 10.6937L39.4842 14.0437L38.7092 18.75L39.4842 23.4563L36.0905 26.8063L33.953 31.0719L29.2342 31.7875L24.9998 33.9812L20.7655 31.7875L16.0467 31.0719L13.9092 26.8063L10.5155 23.4563L11.2936 18.75L10.5123 14.0437L13.9092 10.6937L16.0467 6.42812L20.7655 5.7125L24.9998 3.51875L29.2373 5.7125L33.953 6.42812Z" fill="white"/>
<path d="M12.5 36.8562V50L25 46.875L37.5 50V36.8562L31.1938 37.8125L25 41.0187L18.8063 37.8125L12.5 36.8562Z" fill="white"/>
</svg>
