<svg width="30" height="30" viewBox="0 0 30 30" fill="none" xmlns="http://www.w3.org/2000/svg">
<g clip-path="url(#clip0)">
<path d="M28.9098 1.44106L22.816 0.0348133C22.1539 -0.11753 21.4742 0.228173 21.2047 0.849266L18.3922 7.41177C18.1461 7.98599 18.3102 8.65981 18.7965 9.05239L22.3473 11.9586C20.2379 16.4528 16.5524 20.1911 11.9645 22.3415L9.05823 18.7907C8.65979 18.3043 7.99182 18.1403 7.4176 18.3864L0.855103 21.1989C0.228149 21.4743 -0.117554 22.154 0.03479 22.8161L1.44104 28.9098C1.58752 29.5426 2.15002 29.9997 2.81213 29.9997C17.818 29.9997 29.9996 17.8415 29.9996 2.81216C29.9996 2.15591 29.5485 1.58755 28.9098 1.44106Z" fill="white"/>
</g>
<defs>
<clipPath id="clip0">
<rect width="30" height="30" fill="white"/>
</clipPath>
</defs>
</svg>
