<svg width="40" height="40" viewBox="0 0 40 40" fill="none" xmlns="http://www.w3.org/2000/svg">
<path d="M34.6667 9.33333C33.3906 9.90104 32.0208 10.2813 30.5833 10.4531C32.0521 9.57292 33.1771 8.17708 33.7083 6.51563C32.3333 7.33333 30.8125 7.92708 29.1927 8.24479C27.8958 6.86458 26.0469 6 24 6C20.0729 6 16.8854 9.18229 16.8854 13.1094C16.8854 13.6667 16.9531 14.2135 17.0729 14.7292C11.1615 14.4323 5.92187 11.6042 2.41146 7.29687C1.80208 8.34896 1.45313 9.56771 1.45313 10.875C1.45313 13.3437 2.70313 15.5208 4.61458 16.7917C3.44792 16.7552 2.34896 16.4375 1.39063 15.9063C1.39063 15.9375 1.39063 15.9635 1.39063 15.9948C1.39063 19.4427 3.84375 22.3177 7.09896 22.9688C6.5 23.1302 5.86979 23.2188 5.22396 23.2188C4.76563 23.2188 4.31771 23.1719 3.88542 23.0885C4.79167 25.9167 7.41667 27.974 10.5313 28.0312C8.09375 29.9375 5.03125 31.0729 1.69792 31.0729C1.125 31.0729 0.557292 31.0417 0 30.974C3.14583 32.9948 6.88542 34.1719 10.901 34.1719C23.9844 34.1719 31.1354 23.3333 31.1354 13.9323C31.1354 13.625 31.1302 13.3177 31.1146 13.0156C32.5052 12.0104 33.7135 10.7604 34.6667 9.33333Z" fill="white"/>
</svg>
