<svg width="40" height="40" viewBox="0 0 40 40" fill="none" xmlns="http://www.w3.org/2000/svg">
<path d="M38.1705 9.69398C37.7343 7.84633 36.4492 6.39117 34.8174 5.89734C31.8598 5 20 5 20 5C20 5 8.14025 5 5.18254 5.89734C3.55081 6.39125 2.26567 7.84633 1.82949 9.69398C1.03699 13.043 1.03699 20.0303 1.03699 20.0303C1.03699 20.0303 1.03699 27.0177 1.82949 30.3666C2.26567 32.2143 3.55081 33.6088 5.18254 34.1027C8.14025 35 20 35 20 35C20 35 31.8597 35 34.8174 34.1027C36.4492 33.6088 37.7343 32.2143 38.1705 30.3666C38.963 27.0177 38.963 20.0303 38.963 20.0303C38.963 20.0303 38.963 13.043 38.1705 9.69398ZM16.1212 26.3743V13.6863L26.0336 20.0305L16.1212 26.3743Z" fill="white"/>
</svg>
