<svg width="291" height="222" viewBox="0 0 291 222" fill="none" xmlns="http://www.w3.org/2000/svg">
<ellipse cx="144.991" cy="111" rx="119.554" ry="111" fill="url(#paint0_linear)"/>
<path d="M55.0246 49.9399C55.9706 49.9399 56.9166 50.0259 57.8626 50.1979C58.8373 50.3413 59.7116 50.5849 60.4856 50.9289C61.2596 51.2443 61.8903 51.6456 62.3776 52.1329C62.8936 52.5916 63.1516 53.1363 63.1516 53.7669C63.1516 54.4263 62.9796 54.9279 62.6356 55.2719C62.2916 55.6159 61.8616 55.7879 61.3456 55.7879C60.8583 55.7879 60.4283 55.7163 60.0556 55.5729C59.683 55.4009 59.253 55.2146 58.7656 55.0139C58.307 54.8133 57.748 54.6413 57.0886 54.4979C56.4293 54.3259 55.555 54.2399 54.4656 54.2399C53.3763 54.2399 52.33 54.5266 51.3266 55.0999C50.352 55.6446 49.492 56.4186 48.7466 57.4219C48.03 58.3966 47.4566 59.5576 47.0266 60.9049C46.5966 62.2523 46.3816 63.7143 46.3816 65.2909C46.3816 67.2403 46.6253 68.9173 47.1126 70.3219C47.6286 71.7266 48.288 72.8876 49.0906 73.8049C49.8933 74.6936 50.7963 75.3673 51.7996 75.8259C52.8316 76.2559 53.8636 76.4709 54.8956 76.4709C56.1283 76.4709 57.1603 76.3419 57.9916 76.0839C58.823 75.8259 59.5253 75.5393 60.0986 75.2239C60.7006 74.9086 61.2166 74.6219 61.6466 74.3639C62.0766 74.1059 62.4923 73.9769 62.8936 73.9769C63.381 73.9769 63.768 74.1203 64.0546 74.4069C64.3413 74.6649 64.4846 75.1379 64.4846 75.8259C64.4846 76.3993 64.2553 76.9869 63.7966 77.5889C63.3666 78.1623 62.7216 78.6926 61.8616 79.1799C61.0303 79.6386 60.027 80.0256 58.8516 80.3409C57.6763 80.6276 56.3576 80.7709 54.8956 80.7709C53.2903 80.7709 51.685 80.4556 50.0796 79.8249C48.503 79.1943 47.084 78.2626 45.8226 77.0299C44.59 75.7686 43.5866 74.2063 42.8126 72.3429C42.0386 70.4509 41.6516 68.2579 41.6516 65.7639C41.6516 63.2699 41.9956 61.0483 42.6836 59.0989C43.4003 57.1496 44.3606 55.5013 45.5646 54.1539C46.7973 52.7779 48.2163 51.7316 49.8216 51.0149C51.4556 50.2983 53.19 49.9399 55.0246 49.9399ZM85.9259 80.5559C85.4672 80.5559 85.0945 80.4843 84.8079 80.3409C84.5499 80.1689 84.3492 79.9539 84.2059 79.6959C84.0625 79.4379 83.9622 79.1369 83.9049 78.7929C83.8475 78.4203 83.8045 78.0333 83.7759 77.6319C83.0592 78.5206 82.1275 79.2659 80.9809 79.8679C79.8629 80.4699 78.4295 80.7709 76.6809 80.7709C75.5629 80.7709 74.4162 80.6133 73.2409 80.2979C72.0942 79.9539 71.0479 79.3806 70.1019 78.5779C69.1559 77.7466 68.3819 76.6429 67.7799 75.2669C67.1779 73.8909 66.8769 72.1566 66.8769 70.0639C66.8769 68.4299 67.0775 66.8963 67.4789 65.4629C67.8802 64.0296 68.4822 62.7826 69.2849 61.7219C70.1162 60.6326 71.1482 59.7726 72.3809 59.1419C73.6135 58.5113 75.0612 58.1959 76.7239 58.1959C78.1859 58.1959 79.4902 58.4683 80.6369 59.0129C81.7835 59.5289 82.8155 60.3889 83.7329 61.5929C83.7329 61.2489 83.7472 60.9049 83.7759 60.5609C83.8045 60.1883 83.8762 59.8586 83.9909 59.5719C84.1342 59.2566 84.3492 59.0129 84.6359 58.8409C84.9225 58.6403 85.3095 58.5399 85.7969 58.5399C86.2269 58.5399 86.6282 58.7119 87.0009 59.0559C87.3735 59.3999 87.5885 60.1453 87.6459 61.2919C87.7319 62.8113 87.7892 64.1729 87.8179 65.3769C87.8752 66.5809 87.9039 67.8279 87.9039 69.1179C87.9039 70.6946 87.8895 72.1423 87.8609 73.4609C87.8322 74.7796 87.7605 76.1843 87.6459 77.6749C87.5885 78.3343 87.5025 78.8646 87.3879 79.2659C87.3019 79.6386 87.1872 79.9253 87.0439 80.1259C86.9005 80.2979 86.7285 80.4126 86.5279 80.4699C86.3272 80.5273 86.1265 80.5559 85.9259 80.5559ZM83.6039 69.6339C83.6039 68.1433 83.3745 66.9249 82.9159 65.9789C82.4859 65.0329 81.9269 64.3019 81.2389 63.7859C80.5795 63.2413 79.8629 62.8686 79.0889 62.6679C78.3149 62.4673 77.5982 62.3669 76.9389 62.3669C75.9069 62.3669 75.0182 62.5533 74.2729 62.9259C73.5562 63.2986 72.9685 63.8146 72.5099 64.4739C72.0512 65.1046 71.7072 65.8643 71.4779 66.7529C71.2772 67.6129 71.1769 68.5589 71.1769 69.5909C71.1769 72.1136 71.7215 73.9769 72.8109 75.1809C73.9289 76.3849 75.4339 76.9869 77.3259 76.9869C78.4439 76.9869 79.3899 76.8006 80.1639 76.4279C80.9665 76.0266 81.6115 75.4963 82.0989 74.8369C82.6149 74.1776 82.9875 73.4036 83.2169 72.5149C83.4749 71.5976 83.6039 70.6373 83.6039 69.6339ZM121.927 79.0939C121.755 78.6066 121.641 78.0619 121.583 77.4599C121.555 76.8579 121.54 76.1126 121.54 75.2239C121.54 74.5933 121.54 74.1059 121.54 73.7619C121.569 73.3893 121.583 73.0739 121.583 72.8159C121.583 72.5293 121.583 72.2569 121.583 71.9989C121.612 71.7123 121.626 71.3253 121.626 70.8379C121.626 69.8346 121.598 68.8313 121.54 67.8279C121.512 66.7959 121.368 65.8786 121.11 65.0759C120.852 64.2446 120.451 63.5709 119.906 63.0549C119.362 62.5389 118.573 62.2809 117.541 62.2809C115.793 62.2809 114.431 63.1123 113.456 64.7749C112.482 66.4376 111.894 69.0893 111.693 72.7299C111.636 73.8766 111.607 74.9229 111.607 75.8689C111.607 76.8149 111.55 77.6319 111.435 78.3199C111.321 78.9793 111.106 79.4953 110.79 79.8679C110.504 80.2406 110.016 80.4269 109.328 80.4269C108.698 80.4269 108.239 80.2693 107.952 79.9539C107.666 79.6099 107.451 79.1083 107.307 78.4489C107.193 77.7896 107.121 76.9869 107.092 76.0409C107.092 75.0949 107.049 73.9913 106.963 72.7299C106.877 71.3539 106.734 70.0353 106.533 68.7739C106.361 67.5126 106.06 66.4089 105.63 65.4629C105.229 64.4883 104.67 63.7143 103.953 63.1409C103.265 62.5676 102.377 62.2809 101.287 62.2809C100.255 62.2809 99.4526 62.5389 98.8793 63.0549C98.3346 63.5423 97.9333 64.2016 97.6753 65.0329C97.4173 65.8356 97.2596 66.7529 97.2023 67.7849C97.1736 68.7883 97.1593 69.8059 97.1593 70.8379C97.1593 71.3539 97.1593 71.7409 97.1593 71.9989C97.1879 72.2283 97.2023 72.4433 97.2023 72.6439C97.2023 72.8446 97.2023 73.1026 97.2023 73.4179C97.2309 73.7333 97.2453 74.2206 97.2453 74.8799C97.2453 75.8259 97.2166 76.6429 97.1593 77.3309C97.1306 78.0189 97.0303 78.6066 96.8583 79.0939C96.6576 79.6673 96.3853 80.0256 96.0413 80.1689C95.6973 80.2836 95.3819 80.3409 95.0953 80.3409C94.2066 80.3409 93.6333 80.0256 93.3753 79.3949C93.1173 78.7643 92.9739 77.8469 92.9453 76.6429C92.9453 75.9836 92.9309 75.2526 92.9023 74.4499C92.9023 73.6186 92.9023 72.6153 92.9023 71.4399C92.9023 70.8666 92.9023 70.3649 92.9023 69.9349C92.9023 69.5049 92.9023 69.0893 92.9023 68.6879C92.9309 68.2866 92.9453 67.8853 92.9453 67.4839C92.9739 67.0539 93.0026 66.5666 93.0313 66.0219C93.1173 64.2733 93.4326 62.8829 93.9773 61.8509C94.5219 60.7903 95.1669 59.9876 95.9123 59.4429C96.6576 58.8983 97.4603 58.5543 98.3203 58.4109C99.1803 58.2389 99.9686 58.1529 100.685 58.1529C102.233 58.1529 103.538 58.3823 104.598 58.8409C105.659 59.2996 106.519 59.9016 107.178 60.6469C107.866 61.3923 108.368 62.2379 108.683 63.1839C109.027 64.1299 109.257 65.0903 109.371 66.0649C109.486 65.1189 109.715 64.1873 110.059 63.2699C110.432 62.3239 110.962 61.4926 111.65 60.7759C112.367 60.0306 113.284 59.4286 114.402 58.9699C115.52 58.5113 116.896 58.2819 118.53 58.2819C119.304 58.2819 120.093 58.3679 120.895 58.5399C121.727 58.6833 122.486 59.0273 123.174 59.5719C123.862 60.1166 124.436 60.9049 124.894 61.9369C125.382 62.9403 125.668 64.3019 125.754 66.0219C125.783 66.5666 125.797 67.0539 125.797 67.4839C125.826 67.8853 125.84 68.2866 125.84 68.6879C125.869 69.0893 125.883 69.5049 125.883 69.9349C125.883 70.3649 125.883 70.8666 125.883 71.4399C125.883 72.6153 125.869 73.6186 125.84 74.4499C125.84 75.2526 125.84 75.9836 125.84 76.6429C125.84 77.1876 125.812 77.6893 125.754 78.1479C125.726 78.6066 125.64 78.9936 125.496 79.3089C125.353 79.6243 125.138 79.8823 124.851 80.0829C124.593 80.2549 124.206 80.3409 123.69 80.3409C123.203 80.3409 122.83 80.2549 122.572 80.0829C122.314 79.8823 122.099 79.5526 121.927 79.0939ZM135.636 52.2619C135.636 53.9819 135.579 55.7879 135.464 57.6799C135.378 59.5433 135.264 61.3636 135.12 63.1409C135.493 62.3669 135.98 61.7076 136.582 61.1629C137.184 60.5896 137.844 60.1309 138.56 59.7869C139.306 59.4429 140.08 59.1849 140.882 59.0129C141.685 58.8409 142.459 58.7549 143.204 58.7549C144.494 58.7549 145.698 58.9986 146.816 59.4859C147.963 59.9446 148.952 60.6326 149.783 61.5499C150.643 62.4386 151.303 63.5566 151.761 64.9039C152.249 66.2226 152.492 67.7419 152.492 69.4619C152.492 71.1246 152.249 72.6439 151.761 74.0199C151.274 75.3959 150.543 76.5856 149.568 77.5889C148.622 78.5636 147.433 79.3233 145.999 79.8679C144.595 80.4126 142.975 80.6849 141.14 80.6849C138.646 80.6849 136.683 80.1833 135.249 79.1799C133.845 78.1766 132.798 76.8436 132.11 75.1809C131.422 73.4896 130.992 71.5546 130.82 69.3759C130.677 67.1973 130.605 64.9183 130.605 62.5389C130.605 60.1309 130.648 57.9523 130.734 56.0029C130.82 54.0536 130.949 52.4769 131.121 51.2729C131.293 50.1836 131.58 49.4096 131.981 48.9509C132.383 48.4923 132.913 48.2629 133.572 48.2629C134.06 48.2629 134.447 48.3776 134.733 48.6069C135.02 48.8076 135.221 49.0943 135.335 49.4669C135.479 49.8396 135.565 50.2696 135.593 50.7569C135.622 51.2156 135.636 51.7173 135.636 52.2619ZM142 63.0119C141.169 63.0119 140.366 63.1553 139.592 63.4419C138.847 63.6999 138.173 64.1156 137.571 64.6889C136.998 65.2623 136.539 65.9933 136.195 66.8819C135.851 67.7419 135.679 68.7883 135.679 70.0209C135.679 72.1996 136.21 73.8623 137.27 75.0089C138.36 76.1269 139.807 76.6859 141.613 76.6859C142.359 76.6859 143.118 76.5856 143.892 76.3849C144.666 76.1556 145.369 75.7829 145.999 75.2669C146.63 74.7223 147.146 74.0056 147.547 73.1169C147.949 72.2283 148.149 71.1246 148.149 69.8059C148.149 68.6306 147.977 67.6129 147.633 66.7529C147.318 65.8929 146.874 65.1906 146.3 64.6459C145.727 64.0726 145.068 63.6569 144.322 63.3989C143.577 63.1409 142.803 63.0119 142 63.0119ZM156.526 77.7609C156.412 76.7576 156.34 75.5393 156.311 74.1059C156.283 72.6726 156.268 70.9383 156.268 68.9029C156.268 66.8963 156.268 65.2766 156.268 64.0439C156.297 62.8113 156.383 61.7219 156.526 60.7759C156.67 59.6006 156.885 58.8409 157.171 58.4969C157.487 58.1529 157.888 57.9809 158.375 57.9809C158.719 57.9809 159.02 58.0096 159.278 58.0669C159.565 58.1243 159.809 58.2533 160.009 58.4539C160.239 58.6259 160.411 58.8839 160.525 59.2279C160.64 59.5719 160.697 60.0449 160.697 60.6469C160.697 60.7616 160.712 60.8763 160.74 60.9909C160.74 61.1056 160.74 61.2346 160.74 61.3779C160.769 61.4926 160.783 61.6359 160.783 61.8079C161.557 60.8333 162.432 60.0019 163.406 59.3139C164.41 58.6259 165.542 58.2819 166.803 58.2819C168.495 58.2819 169.34 58.9843 169.34 60.3889C169.34 60.9049 169.226 61.3349 168.996 61.6789C168.796 62.0229 168.495 62.3096 168.093 62.5389C167.721 62.7396 167.276 62.8973 166.76 63.0119C166.273 63.1266 165.728 63.2413 165.126 63.3559C164.209 63.5279 163.349 63.8576 162.546 64.3449C161.744 64.8036 161.199 65.3913 160.912 66.1079C160.912 66.6526 160.912 67.0539 160.912 67.3119C160.941 67.5699 160.955 67.7849 160.955 67.9569C160.984 68.1289 160.998 68.3153 160.998 68.5159C160.998 68.7166 160.998 69.0319 160.998 69.4619C160.998 70.9239 160.97 72.2999 160.912 73.5899C160.855 74.8513 160.798 76.2273 160.74 77.7179C160.712 78.4059 160.626 78.9363 160.482 79.3089C160.368 79.6816 160.21 79.9683 160.009 80.1689C159.837 80.3696 159.637 80.4843 159.407 80.5129C159.178 80.5703 158.949 80.5989 158.719 80.5989C157.917 80.5989 157.372 80.4269 157.085 80.0829C156.827 79.7103 156.641 78.9363 156.526 77.7609ZM172.821 77.7179C172.764 76.6573 172.707 75.4533 172.649 74.1059C172.621 72.7299 172.606 71.2249 172.606 69.5909C172.606 67.5556 172.621 65.8213 172.649 64.3879C172.678 62.9259 172.75 61.7363 172.864 60.8189C173.008 59.8729 173.223 59.1849 173.509 58.7549C173.796 58.2963 174.197 58.0669 174.713 58.0669C175.201 58.0669 175.631 58.2389 176.003 58.5829C176.376 58.9269 176.591 59.6723 176.648 60.8189C176.82 63.8289 176.906 66.7386 176.906 69.5479C176.906 70.9813 176.878 72.3286 176.82 73.5899C176.763 74.8226 176.706 76.1843 176.648 77.6749C176.62 78.3629 176.548 78.8933 176.433 79.2659C176.347 79.6386 176.218 79.9253 176.046 80.1259C175.874 80.3266 175.674 80.4413 175.444 80.4699C175.244 80.5273 175 80.5559 174.713 80.5559C174.197 80.5559 173.767 80.3839 173.423 80.0399C173.079 79.6673 172.879 78.8933 172.821 77.7179ZM174.756 50.2839C175.416 50.2839 176.018 50.5419 176.562 51.0579C177.136 51.5739 177.422 52.1903 177.422 52.9069C177.422 53.5949 177.136 54.1969 176.562 54.7129C175.989 55.2003 175.344 55.4439 174.627 55.4439C174.025 55.4439 173.452 55.2003 172.907 54.7129C172.391 54.1969 172.133 53.5663 172.133 52.8209C172.133 52.1329 172.391 51.5453 172.907 51.0579C173.452 50.5419 174.068 50.2839 174.756 50.2839ZM200.152 80.2979C199.578 80.2979 199.091 80.0686 198.69 79.6099C198.317 79.1513 198.059 78.6209 197.916 78.0189C197.572 78.3343 197.17 78.6496 196.712 78.9649C196.282 79.2803 195.78 79.5813 195.207 79.8679C194.633 80.1259 194.003 80.3409 193.315 80.5129C192.627 80.6849 191.881 80.7709 191.079 80.7709C190.104 80.7709 189.015 80.6133 187.811 80.2979C186.635 79.9539 185.517 79.3806 184.457 78.5779C183.425 77.7466 182.55 76.6286 181.834 75.2239C181.146 73.8193 180.802 72.0563 180.802 69.9349C180.802 68.1289 181.074 66.5236 181.619 65.1189C182.163 63.7143 182.923 62.5389 183.898 61.5929C184.901 60.6183 186.076 59.8873 187.424 59.3999C188.8 58.8839 190.29 58.6259 191.896 58.6259C193.272 58.6259 194.361 58.7836 195.164 59.0989C195.966 59.4143 196.597 59.7869 197.056 60.2169C197.056 59.4429 197.056 58.5686 197.056 57.5939C197.056 56.5906 197.056 55.6303 197.056 54.7129C197.084 53.7669 197.099 52.9069 197.099 52.1329C197.127 51.3589 197.156 50.7713 197.185 50.3699C197.242 49.3953 197.414 48.7359 197.701 48.3919C197.987 48.0193 198.489 47.8329 199.206 47.8329C199.951 47.8329 200.453 48.0193 200.711 48.3919C200.997 48.7359 201.169 49.3523 201.227 50.2409C201.255 50.6136 201.27 51.1153 201.27 51.7459C201.298 52.3766 201.313 53.0646 201.313 53.8099C201.313 54.5553 201.313 55.3149 201.313 56.0889C201.341 56.8343 201.356 57.5223 201.356 58.1529C201.356 58.7549 201.356 59.2566 201.356 59.6579C201.356 60.0593 201.356 60.2599 201.356 60.2599C201.356 63.1839 201.327 65.8786 201.27 68.3439C201.241 70.8093 201.227 72.7729 201.227 74.2349C201.284 74.5503 201.399 74.8513 201.571 75.1379C201.771 75.4246 201.972 75.7113 202.173 75.9979C202.402 76.2846 202.603 76.5856 202.775 76.9009C202.947 77.2163 203.033 77.5459 203.033 77.8899C203.033 78.2913 202.932 78.6496 202.732 78.9649C202.531 79.2516 202.273 79.4953 201.958 79.6959C201.671 79.8966 201.356 80.0543 201.012 80.1689C200.696 80.2549 200.41 80.2979 200.152 80.2979ZM191.853 76.5139C193.63 76.5139 194.992 75.9836 195.938 74.9229C196.884 73.8623 197.357 72.1136 197.357 69.6769C197.357 65.0043 195.508 62.6679 191.81 62.6679C190.95 62.6679 190.118 62.7969 189.316 63.0549C188.513 63.3129 187.796 63.7143 187.166 64.2589C186.564 64.8036 186.062 65.4916 185.661 66.3229C185.288 67.1543 185.102 68.1433 185.102 69.2899C185.102 70.2359 185.231 71.1389 185.489 71.9989C185.775 72.8589 186.191 73.6329 186.736 74.3209C187.309 74.9803 188.011 75.5106 188.843 75.9119C189.703 76.3133 190.706 76.5139 191.853 76.5139ZM215.173 86.2749C216.52 86.2749 217.653 86.0026 218.57 85.4579C219.516 84.9419 220.276 84.1823 220.849 83.1789C221.422 82.2043 221.824 81.0289 222.053 79.6529C222.311 78.2483 222.44 76.6716 222.44 74.9229C222.182 75.8403 221.809 76.6143 221.322 77.2449C220.835 77.8756 220.261 78.3916 219.602 78.7929C218.971 79.1656 218.255 79.4379 217.452 79.6099C216.649 79.7819 215.818 79.8679 214.958 79.8679C213.639 79.8679 212.392 79.6816 211.217 79.3089C210.042 78.9363 209.01 78.3486 208.121 77.5459C207.261 76.7433 206.573 75.7256 206.057 74.4929C205.541 73.2316 205.283 71.7266 205.283 69.9779C205.283 68.2866 205.527 66.7386 206.014 65.3339C206.53 63.9006 207.261 62.6679 208.207 61.6359C209.182 60.6039 210.357 59.8013 211.733 59.2279C213.109 58.6546 214.686 58.3679 216.463 58.3679C217.409 58.3679 218.24 58.4539 218.957 58.6259C219.702 58.7979 220.362 59.0273 220.935 59.3139C221.508 59.6006 222.01 59.9446 222.44 60.3459C222.899 60.7473 223.314 61.1773 223.687 61.6359C224.776 63.0119 225.565 64.6459 226.052 66.5379C226.539 68.4013 226.783 70.6516 226.783 73.2889C226.783 75.2383 226.611 77.2306 226.267 79.2659C225.952 81.3013 225.364 83.1359 224.504 84.7699C223.644 86.4326 222.454 87.7799 220.935 88.8119C219.416 89.8726 217.466 90.4029 215.087 90.4029C214.657 90.4029 214.17 90.3743 213.625 90.3169C213.109 90.2883 212.564 90.2309 211.991 90.1449C211.446 90.0589 210.902 89.9299 210.357 89.7579C209.812 89.6146 209.311 89.4139 208.852 89.1559C208.279 88.8406 207.82 88.5396 207.476 88.2529C207.132 87.9663 206.96 87.4933 206.96 86.8339C206.96 86.2893 207.075 85.7876 207.304 85.3289C207.562 84.8989 207.992 84.6839 208.594 84.6839C208.881 84.6839 209.196 84.7699 209.54 84.9419C209.884 85.1139 210.3 85.2859 210.787 85.4579C211.303 85.6586 211.905 85.8449 212.593 86.0169C213.31 86.1889 214.17 86.2749 215.173 86.2749ZM215.388 75.9549C216.506 75.9549 217.452 75.7543 218.226 75.3529C219.029 74.9229 219.674 74.3639 220.161 73.6759C220.677 72.9879 221.05 72.2139 221.279 71.3539C221.537 70.4939 221.666 69.6339 221.666 68.7739C221.666 68.0573 221.566 67.3406 221.365 66.6239C221.193 65.8786 220.892 65.2049 220.462 64.6029C220.032 64.0009 219.444 63.5136 218.699 63.1409C217.954 62.7683 217.022 62.5819 215.904 62.5819C214.012 62.5819 212.478 63.1553 211.303 64.3019C210.156 65.4486 209.583 67.1399 209.583 69.3759C209.583 71.4686 210.099 73.0883 211.131 74.2349C212.163 75.3816 213.582 75.9549 215.388 75.9549ZM240.613 72.4719C239.609 72.4719 238.549 72.4003 237.431 72.2569C236.341 72.0849 235.152 71.7409 233.862 71.2249C234.12 72.9736 234.836 74.2923 236.012 75.1809C237.216 76.0696 238.936 76.5139 241.172 76.5139C241.974 76.5139 242.691 76.4709 243.322 76.3849C243.981 76.2703 244.554 76.1556 245.042 76.0409C245.529 75.8976 245.959 75.7829 246.332 75.6969C246.704 75.5823 247.048 75.5249 247.364 75.5249C247.765 75.5249 248.152 75.6539 248.525 75.9119C248.897 76.1413 249.084 76.5426 249.084 77.1159C249.084 77.8326 248.783 78.4203 248.181 78.8789C247.607 79.3376 246.891 79.7103 246.031 79.9969C245.199 80.2549 244.311 80.4269 243.365 80.5129C242.419 80.6276 241.587 80.6849 240.871 80.6849C239.179 80.6849 237.617 80.4556 236.184 79.9969C234.779 79.5383 233.561 78.8503 232.529 77.9329C231.497 76.9869 230.694 75.8259 230.121 74.4499C229.547 73.0739 229.261 71.4686 229.261 69.6339C229.261 67.8566 229.533 66.2799 230.078 64.9039C230.651 63.5279 231.425 62.3669 232.4 61.4209C233.374 60.4749 234.521 59.7583 235.84 59.2709C237.187 58.7836 238.635 58.5399 240.183 58.5399C241.387 58.5399 242.548 58.6976 243.666 59.0129C244.812 59.3283 245.816 59.8013 246.676 60.4319C247.564 61.0626 248.267 61.8653 248.783 62.8399C249.327 63.7859 249.6 64.9039 249.6 66.1939C249.6 67.3406 249.385 68.3153 248.955 69.1179C248.525 69.9206 247.908 70.5656 247.106 71.0529C246.332 71.5403 245.386 71.8986 244.268 72.1279C243.178 72.3573 241.96 72.4719 240.613 72.4719ZM240.312 62.4959C239.538 62.4959 238.792 62.5963 238.076 62.7969C237.359 62.9689 236.7 63.2699 236.098 63.6999C235.524 64.1013 235.037 64.6459 234.636 65.3339C234.234 65.9933 233.962 66.8246 233.819 67.8279C234.908 68.3153 235.969 68.6593 237.001 68.8599C238.033 69.0319 239.122 69.1179 240.269 69.1179C241.96 69.1179 243.207 68.9173 244.01 68.5159C244.841 68.0859 245.257 67.3263 245.257 66.2369C245.257 65.2336 244.87 64.3593 244.096 63.6139C243.35 62.8686 242.089 62.4959 240.312 62.4959ZM56.6202 131.718C56.5628 130.17 56.5055 128.55 56.4482 126.859C56.4195 125.139 56.4052 123.161 56.4052 120.925C55.4878 120.954 54.5132 120.982 53.4812 121.011C52.4492 121.011 51.3885 121.011 50.2992 121.011C49.0092 121.011 47.8338 121.011 46.7732 121.011C45.7125 121.011 44.7665 120.997 43.9352 120.968C43.9065 122.774 43.8778 124.523 43.8492 126.214C43.8205 127.877 43.7632 129.697 43.6772 131.675C43.6485 132.363 43.5768 132.893 43.4622 133.266C43.3762 133.639 43.2472 133.925 43.0752 134.126C42.9032 134.327 42.7025 134.441 42.4732 134.47C42.2725 134.527 42.0288 134.556 41.7422 134.556C41.2262 134.556 40.7962 134.384 40.4522 134.04C40.1082 133.667 39.9075 132.893 39.8502 131.718C39.7928 130.686 39.7498 129.611 39.7212 128.493C39.7212 127.375 39.7068 126.171 39.6782 124.881C39.6495 123.591 39.6352 122.201 39.6352 120.71C39.6352 119.191 39.6352 117.499 39.6352 115.636C39.6352 113.601 39.6495 111.866 39.6782 110.433C39.7068 108.971 39.7785 107.781 39.8932 106.864C40.0365 105.947 40.2515 105.273 40.5382 104.843C40.8248 104.413 41.2262 104.198 41.7422 104.198C42.2295 104.198 42.6595 104.356 43.0322 104.671C43.4048 104.986 43.6198 105.717 43.6772 106.864C43.7345 107.839 43.7775 108.727 43.8062 109.53C43.8348 110.304 43.8635 111.078 43.8922 111.852C43.9208 112.597 43.9352 113.371 43.9352 114.174C43.9352 114.977 43.9352 115.865 43.9352 116.84C46.0852 116.754 48.1922 116.711 50.2562 116.711C51.2595 116.711 52.2628 116.725 53.2662 116.754C54.2982 116.783 55.3445 116.826 56.4052 116.883V115.636C56.4052 113.601 56.4195 111.866 56.4482 110.433C56.4768 108.971 56.5485 107.781 56.6632 106.864C56.8065 105.947 57.0215 105.273 57.3082 104.843C57.5948 104.413 57.9962 104.198 58.5122 104.198C58.9995 104.198 59.4295 104.356 59.8022 104.671C60.1748 104.986 60.3898 105.717 60.4472 106.864C60.5045 107.896 60.5475 108.813 60.5762 109.616C60.6048 110.419 60.6335 111.221 60.6622 112.024C60.6908 112.798 60.7052 113.615 60.7052 114.475C60.7052 115.306 60.7052 116.252 60.7052 117.313C60.7052 118.603 60.7052 119.836 60.7052 121.011C60.7052 122.186 60.6908 123.347 60.6622 124.494C60.6335 125.641 60.6048 126.802 60.5762 127.977C60.5475 129.152 60.5045 130.385 60.4472 131.675C60.4185 132.363 60.3468 132.893 60.2322 133.266C60.1462 133.639 60.0172 133.925 59.8452 134.126C59.6732 134.327 59.4725 134.441 59.2432 134.47C59.0425 134.527 58.7988 134.556 58.5122 134.556C57.9962 134.556 57.5662 134.384 57.2222 134.04C56.8782 133.667 56.6775 132.893 56.6202 131.718ZM83.5533 134.556C83.0946 134.556 82.722 134.484 82.4353 134.341C82.1773 134.169 81.9766 133.954 81.8333 133.696C81.69 133.438 81.5896 133.137 81.5323 132.793C81.475 132.42 81.432 132.033 81.4033 131.632C80.6866 132.521 79.755 133.266 78.6083 133.868C77.4903 134.47 76.057 134.771 74.3083 134.771C73.1903 134.771 72.0436 134.613 70.8683 134.298C69.7216 133.954 68.6753 133.381 67.7293 132.578C66.7833 131.747 66.0093 130.643 65.4073 129.267C64.8053 127.891 64.5043 126.157 64.5043 124.064C64.5043 122.43 64.705 120.896 65.1063 119.463C65.5076 118.03 66.1096 116.783 66.9123 115.722C67.7436 114.633 68.7756 113.773 70.0083 113.142C71.241 112.511 72.6886 112.196 74.3513 112.196C75.8133 112.196 77.1176 112.468 78.2643 113.013C79.411 113.529 80.443 114.389 81.3603 115.593C81.3603 115.249 81.3746 114.905 81.4033 114.561C81.432 114.188 81.5036 113.859 81.6183 113.572C81.7616 113.257 81.9766 113.013 82.2633 112.841C82.55 112.64 82.937 112.54 83.4243 112.54C83.8543 112.54 84.2556 112.712 84.6283 113.056C85.001 113.4 85.216 114.145 85.2733 115.292C85.3593 116.811 85.4166 118.173 85.4453 119.377C85.5026 120.581 85.5313 121.828 85.5313 123.118C85.5313 124.695 85.517 126.142 85.4883 127.461C85.4596 128.78 85.388 130.184 85.2733 131.675C85.216 132.334 85.13 132.865 85.0153 133.266C84.9293 133.639 84.8146 133.925 84.6713 134.126C84.528 134.298 84.356 134.413 84.1553 134.47C83.9546 134.527 83.754 134.556 83.5533 134.556ZM81.2313 123.634C81.2313 122.143 81.002 120.925 80.5433 119.979C80.1133 119.033 79.5543 118.302 78.8663 117.786C78.207 117.241 77.4903 116.869 76.7163 116.668C75.9423 116.467 75.2256 116.367 74.5663 116.367C73.5343 116.367 72.6456 116.553 71.9003 116.926C71.1836 117.299 70.596 117.815 70.1373 118.474C69.6786 119.105 69.3346 119.864 69.1053 120.753C68.9046 121.613 68.8043 122.559 68.8043 123.591C68.8043 126.114 69.349 127.977 70.4383 129.181C71.5563 130.385 73.0613 130.987 74.9533 130.987C76.0713 130.987 77.0173 130.801 77.7913 130.428C78.594 130.027 79.239 129.496 79.7263 128.837C80.2423 128.178 80.615 127.404 80.8443 126.515C81.1023 125.598 81.2313 124.637 81.2313 123.634ZM100.678 116.066C99.617 116.066 98.6567 116.238 97.7967 116.582C96.9654 116.926 96.0194 117.442 94.9587 118.13C94.9587 118.732 94.9587 119.621 94.9587 120.796C94.9587 121.943 94.9444 123.204 94.9157 124.58C94.887 125.927 94.8584 127.26 94.8297 128.579C94.801 129.898 94.7437 131.001 94.6577 131.89C94.6004 132.463 94.5287 132.922 94.4427 133.266C94.3854 133.581 94.285 133.825 94.1417 133.997C94.027 134.169 93.855 134.284 93.6257 134.341C93.425 134.37 93.1527 134.384 92.8087 134.384C92.4647 134.384 92.178 134.37 91.9487 134.341C91.748 134.284 91.576 134.183 91.4327 134.04C91.2894 133.868 91.1747 133.624 91.0887 133.309C91.0027 132.994 90.931 132.564 90.8737 132.019C90.8164 131.503 90.759 130.815 90.7017 129.955C90.673 129.095 90.6444 128.163 90.6157 127.16C90.587 126.128 90.5584 125.096 90.5297 124.064C90.5297 123.003 90.5297 122.029 90.5297 121.14C90.5297 119.678 90.544 118.488 90.5727 117.571C90.63 116.654 90.716 115.837 90.8307 115.12C91.0027 113.916 91.232 113.156 91.5187 112.841C91.8054 112.526 92.1924 112.368 92.6797 112.368C93.3964 112.368 93.9267 112.569 94.2707 112.97C94.6434 113.371 94.8727 114.031 94.9587 114.948C96.0194 114.031 97.1517 113.3 98.3557 112.755C99.5884 112.21 100.85 111.938 102.14 111.938C103.372 111.938 104.49 112.225 105.494 112.798C106.526 113.371 107.371 114.303 108.031 115.593C108.432 116.367 108.733 117.227 108.934 118.173C109.134 119.09 109.278 120.065 109.364 121.097C109.392 121.556 109.421 122.014 109.45 122.473C109.478 122.903 109.493 123.376 109.493 123.892C109.521 124.379 109.536 124.938 109.536 125.569C109.536 126.2 109.536 126.945 109.536 127.805C109.536 128.722 109.521 129.582 109.493 130.385C109.464 131.188 109.378 131.89 109.235 132.492C109.12 133.065 108.905 133.524 108.59 133.868C108.274 134.183 107.844 134.341 107.3 134.341C105.981 134.341 105.293 133.71 105.236 132.449C105.236 132.363 105.236 132.005 105.236 131.374C105.236 130.715 105.221 129.955 105.193 129.095C105.193 128.235 105.178 127.361 105.15 126.472C105.15 125.583 105.135 124.852 105.107 124.279C105.078 123.82 105.035 123.333 104.978 122.817C104.949 122.272 104.892 121.728 104.806 121.183C104.748 120.638 104.662 120.122 104.548 119.635C104.433 119.119 104.29 118.66 104.118 118.259C103.716 117.313 103.215 116.711 102.613 116.453C102.011 116.195 101.366 116.066 100.678 116.066ZM132.439 134.298C131.866 134.298 131.379 134.069 130.977 133.61C130.605 133.151 130.347 132.621 130.203 132.019C129.859 132.334 129.458 132.65 128.999 132.965C128.569 133.28 128.068 133.581 127.494 133.868C126.921 134.126 126.29 134.341 125.602 134.513C124.914 134.685 124.169 134.771 123.366 134.771C122.392 134.771 121.302 134.613 120.098 134.298C118.923 133.954 117.805 133.381 116.744 132.578C115.712 131.747 114.838 130.629 114.121 129.224C113.433 127.819 113.089 126.056 113.089 123.935C113.089 122.129 113.362 120.524 113.906 119.119C114.451 117.714 115.211 116.539 116.185 115.593C117.189 114.618 118.364 113.887 119.711 113.4C121.087 112.884 122.578 112.626 124.183 112.626C125.559 112.626 126.649 112.784 127.451 113.099C128.254 113.414 128.885 113.787 129.343 114.217C129.343 113.443 129.343 112.569 129.343 111.594C129.343 110.591 129.343 109.63 129.343 108.713C129.372 107.767 129.386 106.907 129.386 106.133C129.415 105.359 129.444 104.771 129.472 104.37C129.53 103.395 129.702 102.736 129.988 102.392C130.275 102.019 130.777 101.833 131.493 101.833C132.239 101.833 132.74 102.019 132.998 102.392C133.285 102.736 133.457 103.352 133.514 104.241C133.543 104.614 133.557 105.115 133.557 105.746C133.586 106.377 133.6 107.065 133.6 107.81C133.6 108.555 133.6 109.315 133.6 110.089C133.629 110.834 133.643 111.522 133.643 112.153C133.643 112.755 133.643 113.257 133.643 113.658C133.643 114.059 133.643 114.26 133.643 114.26C133.643 117.184 133.615 119.879 133.557 122.344C133.529 124.809 133.514 126.773 133.514 128.235C133.572 128.55 133.686 128.851 133.858 129.138C134.059 129.425 134.26 129.711 134.46 129.998C134.69 130.285 134.89 130.586 135.062 130.901C135.234 131.216 135.32 131.546 135.32 131.89C135.32 132.291 135.22 132.65 135.019 132.965C134.819 133.252 134.561 133.495 134.245 133.696C133.959 133.897 133.643 134.054 133.299 134.169C132.984 134.255 132.697 134.298 132.439 134.298ZM124.14 130.514C125.918 130.514 127.279 129.984 128.225 128.923C129.171 127.862 129.644 126.114 129.644 123.677C129.644 119.004 127.795 116.668 124.097 116.668C123.237 116.668 122.406 116.797 121.603 117.055C120.801 117.313 120.084 117.714 119.453 118.259C118.851 118.804 118.35 119.492 117.948 120.323C117.576 121.154 117.389 122.143 117.389 123.29C117.389 124.236 117.518 125.139 117.776 125.999C118.063 126.859 118.479 127.633 119.023 128.321C119.597 128.98 120.299 129.511 121.13 129.912C121.99 130.313 122.994 130.514 124.14 130.514ZM143.811 142.253C143.438 142.912 143.08 143.4 142.736 143.715C142.42 144.03 142.048 144.188 141.618 144.188C141.216 144.188 140.815 144.059 140.414 143.801C140.012 143.543 139.812 143.185 139.812 142.726C139.812 142.296 139.955 141.68 140.242 140.877C140.557 140.074 140.93 139.2 141.36 138.254C141.818 137.308 142.291 136.333 142.779 135.33C143.266 134.327 143.71 133.409 144.112 132.578L144.413 131.933C143.553 130.242 142.664 128.436 141.747 126.515C140.858 124.594 140.041 122.774 139.296 121.054C138.55 119.334 137.934 117.843 137.447 116.582C136.988 115.292 136.759 114.446 136.759 114.045C136.759 113.672 136.902 113.357 137.189 113.099C137.504 112.812 137.891 112.669 138.35 112.669C138.751 112.669 139.138 112.755 139.511 112.927C139.883 113.07 140.227 113.414 140.543 113.959C141.001 114.819 141.474 115.808 141.962 116.926C142.478 118.015 142.979 119.162 143.467 120.366C143.983 121.57 144.499 122.788 145.015 124.021C145.559 125.254 146.104 126.443 146.649 127.59C147.279 126.415 147.953 125.182 148.67 123.892C149.386 122.602 150.074 121.355 150.734 120.151C151.422 118.947 152.052 117.843 152.626 116.84C153.199 115.808 153.686 114.948 154.088 114.26C154.489 113.601 154.89 113.128 155.292 112.841C155.693 112.554 156.109 112.411 156.539 112.411C156.825 112.411 157.112 112.54 157.399 112.798C157.685 113.027 157.829 113.343 157.829 113.744C157.829 114.346 157.556 115.321 157.012 116.668C156.496 117.987 155.822 119.52 154.991 121.269C154.159 123.018 153.213 124.895 152.153 126.902C151.121 128.88 150.089 130.829 149.057 132.75C148.025 134.642 147.036 136.419 146.09 138.082C145.172 139.745 144.413 141.135 143.811 142.253ZM190.018 133.094C189.846 132.607 189.731 132.062 189.674 131.46C189.645 130.858 189.631 130.113 189.631 129.224C189.631 128.593 189.631 128.106 189.631 127.762C189.659 127.389 189.674 127.074 189.674 126.816C189.674 126.529 189.674 126.257 189.674 125.999C189.702 125.712 189.717 125.325 189.717 124.838C189.717 123.835 189.688 122.831 189.631 121.828C189.602 120.796 189.459 119.879 189.201 119.076C188.943 118.245 188.541 117.571 187.997 117.055C187.452 116.539 186.664 116.281 185.632 116.281C183.883 116.281 182.521 117.112 181.547 118.775C180.572 120.438 179.984 123.089 179.784 126.73C179.726 127.877 179.698 128.923 179.698 129.869C179.698 130.815 179.64 131.632 179.526 132.32C179.411 132.979 179.196 133.495 178.881 133.868C178.594 134.241 178.107 134.427 177.419 134.427C176.788 134.427 176.329 134.269 176.043 133.954C175.756 133.61 175.541 133.108 175.398 132.449C175.283 131.79 175.211 130.987 175.183 130.041C175.183 129.095 175.14 127.991 175.054 126.73C174.968 125.354 174.824 124.035 174.624 122.774C174.452 121.513 174.151 120.409 173.721 119.463C173.319 118.488 172.76 117.714 172.044 117.141C171.356 116.568 170.467 116.281 169.378 116.281C168.346 116.281 167.543 116.539 166.97 117.055C166.425 117.542 166.024 118.202 165.766 119.033C165.508 119.836 165.35 120.753 165.293 121.785C165.264 122.788 165.25 123.806 165.25 124.838C165.25 125.354 165.25 125.741 165.25 125.999C165.278 126.228 165.293 126.443 165.293 126.644C165.293 126.845 165.293 127.103 165.293 127.418C165.321 127.733 165.336 128.221 165.336 128.88C165.336 129.826 165.307 130.643 165.25 131.331C165.221 132.019 165.121 132.607 164.949 133.094C164.748 133.667 164.476 134.026 164.132 134.169C163.788 134.284 163.472 134.341 163.186 134.341C162.297 134.341 161.724 134.026 161.466 133.395C161.208 132.764 161.064 131.847 161.036 130.643C161.036 129.984 161.021 129.253 160.993 128.45C160.993 127.619 160.993 126.615 160.993 125.44C160.993 124.867 160.993 124.365 160.993 123.935C160.993 123.505 160.993 123.089 160.993 122.688C161.021 122.287 161.036 121.885 161.036 121.484C161.064 121.054 161.093 120.567 161.122 120.022C161.208 118.273 161.523 116.883 162.068 115.851C162.612 114.79 163.257 113.988 164.003 113.443C164.748 112.898 165.551 112.554 166.411 112.411C167.271 112.239 168.059 112.153 168.776 112.153C170.324 112.153 171.628 112.382 172.689 112.841C173.749 113.3 174.609 113.902 175.269 114.647C175.957 115.392 176.458 116.238 176.774 117.184C177.118 118.13 177.347 119.09 177.462 120.065C177.576 119.119 177.806 118.187 178.15 117.27C178.522 116.324 179.053 115.493 179.741 114.776C180.457 114.031 181.375 113.429 182.493 112.97C183.611 112.511 184.987 112.282 186.621 112.282C187.395 112.282 188.183 112.368 188.986 112.54C189.817 112.683 190.577 113.027 191.265 113.572C191.953 114.117 192.526 114.905 192.985 115.937C193.472 116.94 193.759 118.302 193.845 120.022C193.873 120.567 193.888 121.054 193.888 121.484C193.916 121.885 193.931 122.287 193.931 122.688C193.959 123.089 193.974 123.505 193.974 123.935C193.974 124.365 193.974 124.867 193.974 125.44C193.974 126.615 193.959 127.619 193.931 128.45C193.931 129.253 193.931 129.984 193.931 130.643C193.931 131.188 193.902 131.689 193.845 132.148C193.816 132.607 193.73 132.994 193.587 133.309C193.443 133.624 193.228 133.882 192.942 134.083C192.684 134.255 192.297 134.341 191.781 134.341C191.293 134.341 190.921 134.255 190.663 134.083C190.405 133.882 190.19 133.553 190.018 133.094ZM216.627 134.556C216.168 134.556 215.795 134.484 215.509 134.341C215.251 134.169 215.05 133.954 214.907 133.696C214.763 133.438 214.663 133.137 214.606 132.793C214.548 132.42 214.505 132.033 214.477 131.632C213.76 132.521 212.828 133.266 211.682 133.868C210.564 134.47 209.13 134.771 207.382 134.771C206.264 134.771 205.117 134.613 203.942 134.298C202.795 133.954 201.749 133.381 200.803 132.578C199.857 131.747 199.083 130.643 198.481 129.267C197.879 127.891 197.578 126.157 197.578 124.064C197.578 122.43 197.778 120.896 198.18 119.463C198.581 118.03 199.183 116.783 199.986 115.722C200.817 114.633 201.849 113.773 203.082 113.142C204.314 112.511 205.762 112.196 207.425 112.196C208.887 112.196 210.191 112.468 211.338 113.013C212.484 113.529 213.516 114.389 214.434 115.593C214.434 115.249 214.448 114.905 214.477 114.561C214.505 114.188 214.577 113.859 214.692 113.572C214.835 113.257 215.05 113.013 215.337 112.841C215.623 112.64 216.01 112.54 216.498 112.54C216.928 112.54 217.329 112.712 217.702 113.056C218.074 113.4 218.289 114.145 218.347 115.292C218.433 116.811 218.49 118.173 218.519 119.377C218.576 120.581 218.605 121.828 218.605 123.118C218.605 124.695 218.59 126.142 218.562 127.461C218.533 128.78 218.461 130.184 218.347 131.675C218.289 132.334 218.203 132.865 218.089 133.266C218.003 133.639 217.888 133.925 217.745 134.126C217.601 134.298 217.429 134.413 217.229 134.47C217.028 134.527 216.827 134.556 216.627 134.556ZM214.305 123.634C214.305 122.143 214.075 120.925 213.617 119.979C213.187 119.033 212.628 118.302 211.94 117.786C211.28 117.241 210.564 116.869 209.79 116.668C209.016 116.467 208.299 116.367 207.64 116.367C206.608 116.367 205.719 116.553 204.974 116.926C204.257 117.299 203.669 117.815 203.211 118.474C202.752 119.105 202.408 119.864 202.179 120.753C201.978 121.613 201.878 122.559 201.878 123.591C201.878 126.114 202.422 127.977 203.512 129.181C204.63 130.385 206.135 130.987 208.027 130.987C209.145 130.987 210.091 130.801 210.865 130.428C211.667 130.027 212.312 129.496 212.8 128.837C213.316 128.178 213.688 127.404 213.918 126.515C214.176 125.598 214.305 124.637 214.305 123.634ZM233.751 116.066C232.69 116.066 231.73 116.238 230.87 116.582C230.039 116.926 229.093 117.442 228.032 118.13C228.032 118.732 228.032 119.621 228.032 120.796C228.032 121.943 228.018 123.204 227.989 124.58C227.96 125.927 227.932 127.26 227.903 128.579C227.874 129.898 227.817 131.001 227.731 131.89C227.674 132.463 227.602 132.922 227.516 133.266C227.459 133.581 227.358 133.825 227.215 133.997C227.1 134.169 226.928 134.284 226.699 134.341C226.498 134.37 226.226 134.384 225.882 134.384C225.538 134.384 225.251 134.37 225.022 134.341C224.821 134.284 224.649 134.183 224.506 134.04C224.363 133.868 224.248 133.624 224.162 133.309C224.076 132.994 224.004 132.564 223.947 132.019C223.89 131.503 223.832 130.815 223.775 129.955C223.746 129.095 223.718 128.163 223.689 127.16C223.66 126.128 223.632 125.096 223.603 124.064C223.603 123.003 223.603 122.029 223.603 121.14C223.603 119.678 223.617 118.488 223.646 117.571C223.703 116.654 223.789 115.837 223.904 115.12C224.076 113.916 224.305 113.156 224.592 112.841C224.879 112.526 225.266 112.368 225.753 112.368C226.47 112.368 227 112.569 227.344 112.97C227.717 113.371 227.946 114.031 228.032 114.948C229.093 114.031 230.225 113.3 231.429 112.755C232.662 112.21 233.923 111.938 235.213 111.938C236.446 111.938 237.564 112.225 238.567 112.798C239.599 113.371 240.445 114.303 241.104 115.593C241.505 116.367 241.806 117.227 242.007 118.173C242.208 119.09 242.351 120.065 242.437 121.097C242.466 121.556 242.494 122.014 242.523 122.473C242.552 122.903 242.566 123.376 242.566 123.892C242.595 124.379 242.609 124.938 242.609 125.569C242.609 126.2 242.609 126.945 242.609 127.805C242.609 128.722 242.595 129.582 242.566 130.385C242.537 131.188 242.451 131.89 242.308 132.492C242.193 133.065 241.978 133.524 241.663 133.868C241.348 134.183 240.918 134.341 240.373 134.341C239.054 134.341 238.366 133.71 238.309 132.449C238.309 132.363 238.309 132.005 238.309 131.374C238.309 130.715 238.295 129.955 238.266 129.095C238.266 128.235 238.252 127.361 238.223 126.472C238.223 125.583 238.209 124.852 238.18 124.279C238.151 123.82 238.108 123.333 238.051 122.817C238.022 122.272 237.965 121.728 237.879 121.183C237.822 120.638 237.736 120.122 237.621 119.635C237.506 119.119 237.363 118.66 237.191 118.259C236.79 117.313 236.288 116.711 235.686 116.453C235.084 116.195 234.439 116.066 233.751 116.066ZM111.987 162.412C110.955 162.412 110.095 162.527 109.407 162.756C108.719 162.957 108.146 163.229 107.687 163.573C107.229 163.917 106.856 164.275 106.569 164.648C106.311 165.021 106.053 165.379 105.795 165.723C105.566 166.067 105.308 166.354 105.021 166.583C104.763 166.784 104.434 166.884 104.032 166.884C103.344 166.884 102.857 166.712 102.57 166.368C102.312 165.995 102.183 165.508 102.183 164.906C102.183 163.645 102.656 162.469 103.602 161.38C103.889 161.036 104.276 160.678 104.763 160.305C105.279 159.904 105.881 159.545 106.569 159.23C107.286 158.915 108.103 158.657 109.02 158.456C109.966 158.227 111.027 158.112 112.202 158.112C115.327 158.112 117.749 158.872 119.469 160.391C121.189 161.91 122.049 164.046 122.049 166.798C122.049 167.343 121.992 167.945 121.877 168.604C121.791 169.263 121.605 169.951 121.318 170.668C121.06 171.385 120.688 172.13 120.2 172.904C119.713 173.678 119.068 174.466 118.265 175.269C117.549 175.986 116.789 176.645 115.986 177.247C115.184 177.849 114.352 178.451 113.492 179.053C112.632 179.655 111.729 180.3 110.783 180.988C109.866 181.647 108.934 182.407 107.988 183.267C108.906 183.754 109.895 184.07 110.955 184.213C112.016 184.356 113.206 184.428 114.524 184.428C115.757 184.428 116.746 184.399 117.491 184.342C118.237 184.285 118.839 184.213 119.297 184.127C119.756 184.041 120.114 183.969 120.372 183.912C120.63 183.855 120.903 183.826 121.189 183.826C122.25 183.826 122.78 184.313 122.78 185.288C122.78 186.148 122.422 186.807 121.705 187.266C120.989 187.725 120.129 188.069 119.125 188.298C118.122 188.499 117.09 188.613 116.029 188.642C114.969 188.699 114.094 188.728 113.406 188.728C113.034 188.728 112.503 188.699 111.815 188.642C111.156 188.613 110.439 188.542 109.665 188.427C108.891 188.312 108.103 188.155 107.3 187.954C106.526 187.725 105.81 187.438 105.15 187.094C104.52 186.721 104.004 186.277 103.602 185.761C103.201 185.216 103 184.571 103 183.826C103 182.823 103.359 181.877 104.075 180.988C104.821 180.071 105.738 179.182 106.827 178.322C107.917 177.433 109.092 176.559 110.353 175.699C111.615 174.81 112.79 173.907 113.879 172.99C114.969 172.044 115.872 171.069 116.588 170.066C117.334 169.063 117.706 167.973 117.706 166.798C117.706 165.336 117.205 164.247 116.201 163.53C115.227 162.785 113.822 162.412 111.987 162.412ZM126.665 173.678C126.665 171.929 126.822 170.138 127.138 168.303C127.482 166.468 128.084 164.806 128.944 163.315C129.804 161.824 130.965 160.606 132.427 159.66C133.917 158.714 135.809 158.241 138.103 158.241C139.909 158.241 141.442 158.513 142.704 159.058C143.994 159.603 145.054 160.319 145.886 161.208C146.717 162.097 147.362 163.114 147.821 164.261C148.279 165.379 148.623 166.554 148.853 167.787C149.082 169.02 149.211 170.238 149.24 171.442C149.297 172.646 149.326 173.75 149.326 174.753C149.326 176.76 149.082 178.609 148.595 180.3C148.136 181.963 147.419 183.396 146.445 184.6C145.499 185.804 144.295 186.75 142.833 187.438C141.399 188.097 139.708 188.427 137.759 188.427C135.723 188.427 133.989 188.04 132.556 187.266C131.151 186.463 130.004 185.403 129.116 184.084C128.256 182.737 127.625 181.174 127.224 179.397C126.851 177.591 126.665 175.685 126.665 173.678ZM130.965 173.592C130.965 174.997 131.079 176.344 131.309 177.634C131.567 178.895 131.968 180.013 132.513 180.988C133.057 181.934 133.76 182.694 134.62 183.267C135.508 183.84 136.583 184.127 137.845 184.127C139.049 184.127 140.095 183.883 140.984 183.396C141.901 182.909 142.661 182.235 143.263 181.375C143.865 180.486 144.309 179.44 144.596 178.236C144.882 177.032 145.026 175.728 145.026 174.323C145.026 173.262 144.983 172.058 144.897 170.711C144.811 169.335 144.538 168.045 144.08 166.841C143.65 165.637 142.962 164.619 142.016 163.788C141.07 162.957 139.751 162.541 138.06 162.541C136.626 162.541 135.451 162.885 134.534 163.573C133.645 164.261 132.928 165.15 132.384 166.239C131.839 167.3 131.466 168.489 131.266 169.808C131.065 171.098 130.965 172.359 130.965 173.592ZM162.588 162.412C161.556 162.412 160.696 162.527 160.008 162.756C159.32 162.957 158.747 163.229 158.288 163.573C157.829 163.917 157.457 164.275 157.17 164.648C156.912 165.021 156.654 165.379 156.396 165.723C156.167 166.067 155.909 166.354 155.622 166.583C155.364 166.784 155.034 166.884 154.633 166.884C153.945 166.884 153.458 166.712 153.171 166.368C152.913 165.995 152.784 165.508 152.784 164.906C152.784 163.645 153.257 162.469 154.203 161.38C154.49 161.036 154.877 160.678 155.364 160.305C155.88 159.904 156.482 159.545 157.17 159.23C157.887 158.915 158.704 158.657 159.621 158.456C160.567 158.227 161.628 158.112 162.803 158.112C165.928 158.112 168.35 158.872 170.07 160.391C171.79 161.91 172.65 164.046 172.65 166.798C172.65 167.343 172.593 167.945 172.478 168.604C172.392 169.263 172.206 169.951 171.919 170.668C171.661 171.385 171.288 172.13 170.801 172.904C170.314 173.678 169.669 174.466 168.866 175.269C168.149 175.986 167.39 176.645 166.587 177.247C165.784 177.849 164.953 178.451 164.093 179.053C163.233 179.655 162.33 180.3 161.384 180.988C160.467 181.647 159.535 182.407 158.589 183.267C159.506 183.754 160.495 184.07 161.556 184.213C162.617 184.356 163.806 184.428 165.125 184.428C166.358 184.428 167.347 184.399 168.092 184.342C168.837 184.285 169.439 184.213 169.898 184.127C170.357 184.041 170.715 183.969 170.973 183.912C171.231 183.855 171.503 183.826 171.79 183.826C172.851 183.826 173.381 184.313 173.381 185.288C173.381 186.148 173.023 186.807 172.306 187.266C171.589 187.725 170.729 188.069 169.726 188.298C168.723 188.499 167.691 188.613 166.63 188.642C165.569 188.699 164.695 188.728 164.007 188.728C163.634 188.728 163.104 188.699 162.416 188.642C161.757 188.613 161.04 188.542 160.266 188.427C159.492 188.312 158.704 188.155 157.901 187.954C157.127 187.725 156.41 187.438 155.751 187.094C155.12 186.721 154.604 186.277 154.203 185.761C153.802 185.216 153.601 184.571 153.601 183.826C153.601 182.823 153.959 181.877 154.676 180.988C155.421 180.071 156.339 179.182 157.428 178.322C158.517 177.433 159.693 176.559 160.954 175.699C162.215 174.81 163.391 173.907 164.48 172.99C165.569 172.044 166.472 171.069 167.189 170.066C167.934 169.063 168.307 167.973 168.307 166.798C168.307 165.336 167.805 164.247 166.802 163.53C165.827 162.785 164.423 162.412 162.588 162.412ZM183.887 185.718C183.83 184.686 183.787 183.611 183.758 182.493C183.758 181.375 183.744 180.171 183.715 178.881C183.687 177.591 183.672 176.201 183.672 174.71C183.672 173.191 183.672 171.499 183.672 169.636V164.261L181.092 165.594C180.376 166.053 179.802 166.325 179.372 166.411C178.971 166.497 178.527 166.54 178.039 166.54C177.609 166.54 177.222 166.354 176.878 165.981C176.563 165.608 176.405 165.164 176.405 164.648C176.405 164.132 176.577 163.688 176.921 163.315C177.294 162.914 177.724 162.555 178.211 162.24C178.842 161.81 179.516 161.38 180.232 160.95C180.978 160.52 181.694 160.133 182.382 159.789C183.07 159.416 183.701 159.13 184.274 158.929C184.876 158.7 185.378 158.585 185.779 158.585C185.98 158.585 186.181 158.614 186.381 158.671C186.611 158.728 186.811 158.843 186.983 159.015C187.184 159.187 187.342 159.459 187.456 159.832C187.6 160.176 187.686 160.649 187.714 161.251C187.772 162.283 187.815 163.186 187.843 163.96C187.872 164.734 187.901 165.494 187.929 166.239C187.958 166.956 187.972 167.715 187.972 168.518C187.972 169.321 187.972 170.252 187.972 171.313C187.972 172.603 187.972 173.836 187.972 175.011C187.972 176.186 187.958 177.347 187.929 178.494C187.901 179.641 187.872 180.802 187.843 181.977C187.815 183.152 187.772 184.385 187.714 185.675C187.686 186.363 187.614 186.893 187.499 187.266C187.413 187.639 187.284 187.925 187.112 188.126C186.94 188.327 186.74 188.441 186.51 188.47C186.31 188.527 186.066 188.556 185.779 188.556C185.263 188.556 184.833 188.384 184.489 188.04C184.145 187.667 183.945 186.893 183.887 185.718Z" fill="white"/>
<defs>
<linearGradient id="paint0_linear" x1="144.991" y1="0" x2="144.991" y2="222" gradientUnits="userSpaceOnUse">
<stop stop-color="#FF0A0A" stop-opacity="0.78"/>
<stop offset="1" stop-color="#081017" stop-opacity="0.98"/>
</linearGradient>
</defs>
</svg>
