<svg width="50" height="50" viewBox="0 0 50 50" fill="none" xmlns="http://www.w3.org/2000/svg">
<path d="M21.875 9.375L23.4375 6.25L26.5625 4.6875L23.4375 3.125L21.875 0L20.3125 3.125L17.1875 4.6875L20.3125 6.25L21.875 9.375ZM7.8125 15.625L10.416 10.417L15.625 7.8125L10.416 5.20801L7.8125 0L5.20898 5.20801L0 7.8125L5.20898 10.417L7.8125 15.625ZM42.1875 28.125L39.584 33.333L34.375 35.9375L39.584 38.542L42.1875 43.75L44.791 38.542L50 35.9375L44.791 33.333L42.1875 28.125ZM49.084 9.20215L40.7979 0.916016C40.1885 0.304687 39.3887 0 38.5889 0C37.7891 0 36.9893 0.304687 36.3789 0.916016L0.916016 36.3789C-0.304687 37.5996 -0.304687 39.5781 0.916016 40.7979L9.20215 49.084C9.8125 49.6943 10.6123 49.999 11.4111 49.999C12.2109 49.999 13.0107 49.6943 13.6211 49.084L49.084 13.6201C50.3047 12.4014 50.3047 10.4219 49.084 9.20215V9.20215ZM35.1025 19.8691L30.1309 14.8975L38.5879 6.44043L43.5596 11.4121L35.1025 19.8691V19.8691Z" fill="white"/>
</svg>
