<svg width="35" height="39" viewBox="0 0 35 39" fill="none" xmlns="http://www.w3.org/2000/svg">
<path d="M17.5234 20.7948L6.89844 31.1542C6.16406 31.8702 4.97656 31.8702 4.25 31.1542L2.48437 29.4327C1.75 28.7167 1.75 27.5589 2.48437 26.8505L10.0156 19.5075L2.48437 12.1646C1.75 11.4485 1.75 10.2907 2.48437 9.58232L4.24219 7.84561C4.97656 7.12959 6.16406 7.12959 6.89062 7.84561L17.5156 18.205C18.2578 18.921 18.2578 20.0788 17.5234 20.7948ZM32.5234 18.205L21.8984 7.84561C21.1641 7.12959 19.9766 7.12959 19.25 7.84561L17.4844 9.56709C16.75 10.2831 16.75 11.4409 17.4844 12.1493L25.0156 19.4923L17.4844 26.8353C16.75 27.5513 16.75 28.7091 17.4844 29.4175L19.25 31.139C19.9844 31.855 21.1719 31.855 21.8984 31.139L32.5234 20.7796C33.2578 20.0788 33.2578 18.921 32.5234 18.205Z" fill="white"/>
</svg>
