<svg width="40" height="40" viewBox="0 0 40 40" fill="none" xmlns="http://www.w3.org/2000/svg">
<path d="M31.9999 5.33333H7.99992C6.52596 5.33333 5.33325 6.52604 5.33325 7.99999V32C5.33325 33.4739 6.52596 34.6667 7.99992 34.6667H21.3333V22.6667H17.3333V18.6667H21.3333V16.5208C21.3333 12.4531 23.3124 10.6667 26.6926 10.6667C28.3124 10.6667 29.1718 10.7865 29.5728 10.8437V14.6667H27.2708C25.8333 14.6667 25.3333 15.4219 25.3333 16.9583V18.6667H29.5364L28.9687 22.6667H25.3333V34.6667H31.9999C33.4739 34.6667 34.6666 33.4739 34.6666 32V7.99999C34.6666 6.52604 33.4739 5.33333 31.9999 5.33333Z" fill="white"/>
</svg>
