<svg width="30" height="42" viewBox="0 0 30 42" fill="none" xmlns="http://www.w3.org/2000/svg">
<g clip-path="url(#clip0)">
<path d="M28.8984 8.03088L22.3438 1.14846C21.6406 0.410181 20.6875 -0.00817871 19.6953 -0.00817871H3.75C1.67969 2.44146e-05 0 1.7637 0 3.93752V38.0625C0 40.2364 1.67969 42 3.75 42H26.25C28.3203 42 30 40.2364 30 38.0625V10.8199C30 9.77815 29.6016 8.76917 28.8984 8.03088ZM25.9453 10.5H20V4.25745L25.9453 10.5ZM3.75 38.0625V3.93752H16.25V12.4688C16.25 13.5598 17.0859 14.4375 18.125 14.4375H26.25V38.0625H3.75Z" fill="white"/>
</g>
<defs>
<clipPath id="clip0">
<rect width="30" height="42" fill="white"/>
</clipPath>
</defs>
</svg>
