<svg width="40" height="40" viewBox="0 0 40 40" fill="none" xmlns="http://www.w3.org/2000/svg">
<path d="M9.33333 4C4.1875 4 0 8.1875 0 13.3333V26.6667C0 31.8125 4.1875 36 9.33333 36H22.6667C27.8125 36 32 31.8125 32 26.6667V13.3333C32 8.1875 27.8125 4 22.6667 4H9.33333ZM25.3333 9.33333C26.0677 9.33333 26.6667 9.93229 26.6667 10.6667C26.6667 11.401 26.0677 12 25.3333 12C24.599 12 24 11.401 24 10.6667C24 9.93229 24.599 9.33333 25.3333 9.33333ZM16 12C20.4115 12 24 15.5885 24 20C24 24.4115 20.4115 28 16 28C11.5885 28 8 24.4115 8 20C8 15.5885 11.5885 12 16 12ZM16 14.6667C13.0521 14.6667 10.6667 17.0521 10.6667 20C10.6667 22.9479 13.0521 25.3333 16 25.3333C18.9479 25.3333 21.3333 22.9479 21.3333 20C21.3333 17.0521 18.9479 14.6667 16 14.6667Z" fill="white"/>
</svg>
