<svg width="50" height="50" viewBox="0 0 50 50" fill="none" xmlns="http://www.w3.org/2000/svg">
<g clip-path="url(#clip0)">
<path d="M9.28125 4.21875C9.57465 3.87573 9.93887 3.60035 10.3489 3.41153C10.7588 3.22272 11.2049 3.12497 11.6563 3.125H38.3438C38.7951 3.12497 39.2412 3.22272 39.6511 3.41153C40.0611 3.60035 40.4254 3.87573 40.7187 4.21875L48.8719 13.7313C49.5998 14.5807 50 15.6625 50 16.7812V17.5781C50.0002 19.1249 49.5171 20.6331 48.6182 21.8919C47.7193 23.1508 46.4496 24.0973 44.9865 24.5992C43.5234 25.1011 41.94 25.1334 40.4577 24.6915C38.9754 24.2495 37.6682 23.3555 36.7188 22.1344C36.0254 23.0274 35.137 23.7499 34.1214 24.2466C33.1057 24.7433 31.9899 25.001 30.8594 25C29.7288 25.0013 28.6129 24.7437 27.5972 24.2469C26.5816 23.7502 25.6932 23.0276 25 22.1344C24.3068 23.0276 23.4184 23.7502 22.4028 24.2469C21.3871 24.7437 20.2712 25.0013 19.1406 25C18.01 25.0013 16.8941 24.7437 15.8785 24.2469C14.8628 23.7502 13.9744 23.0276 13.2812 22.1344C12.3318 23.3555 11.0246 24.2495 9.5423 24.6915C8.05998 25.1334 6.47661 25.1011 5.01351 24.5992C3.55041 24.0973 2.2807 23.1508 1.38182 21.8919C0.482943 20.6331 -0.000170621 19.1249 4.52017e-08 17.5781V16.7812C3.93986e-05 15.6625 0.400177 14.5807 1.12813 13.7313L9.28437 4.21562L9.28125 4.21875ZM14.8438 17.5781C14.8438 18.7177 15.2965 19.8107 16.1023 20.6165C16.9081 21.4223 18.001 21.875 19.1406 21.875C20.2802 21.875 21.3732 21.4223 22.179 20.6165C22.9848 19.8107 23.4375 18.7177 23.4375 17.5781C23.4375 17.1637 23.6021 16.7663 23.8951 16.4733C24.1882 16.1802 24.5856 16.0156 25 16.0156C25.4144 16.0156 25.8118 16.1802 26.1049 16.4733C26.3979 16.7663 26.5625 17.1637 26.5625 17.5781C26.5625 18.7177 27.0152 19.8107 27.821 20.6165C28.6268 21.4223 29.7198 21.875 30.8594 21.875C31.999 21.875 33.0919 21.4223 33.8977 20.6165C34.7035 19.8107 35.1562 18.7177 35.1562 17.5781C35.1562 17.1637 35.3209 16.7663 35.6139 16.4733C35.9069 16.1802 36.3043 16.0156 36.7188 16.0156C37.1332 16.0156 37.5306 16.1802 37.8236 16.4733C38.1166 16.7663 38.2812 17.1637 38.2812 17.5781C38.2813 18.7177 38.734 19.8107 39.5398 20.6165C40.3456 21.4223 41.4385 21.875 42.5781 21.875C43.7177 21.875 44.8107 21.4223 45.6165 20.6165C46.4223 19.8107 46.875 18.7177 46.875 17.5781V16.7812C46.875 16.4088 46.742 16.0487 46.5 15.7656L38.3438 6.25H11.6563L3.5 15.7656C3.25796 16.0487 3.12497 16.4088 3.125 16.7812V17.5781C3.125 18.7177 3.57771 19.8107 4.38353 20.6165C5.18935 21.4223 6.28227 21.875 7.42188 21.875C8.56148 21.875 9.6544 21.4223 10.4602 20.6165C11.266 19.8107 11.7188 18.7177 11.7188 17.5781C11.7187 17.1637 11.8834 16.7663 12.1764 16.4733C12.4694 16.1802 12.8668 16.0156 13.2812 16.0156C13.6957 16.0156 14.0931 16.1802 14.3861 16.4733C14.6791 16.7663 14.8438 17.1637 14.8438 17.5781V17.5781ZM4.6875 26.5625C5.1019 26.5625 5.49933 26.7271 5.79235 27.0201C6.08538 27.3132 6.25 27.7106 6.25 28.125V46.875H9.375V31.25C9.375 30.4212 9.70424 29.6263 10.2903 29.0403C10.8763 28.4542 11.6712 28.125 12.5 28.125H21.875C22.7038 28.125 23.4987 28.4542 24.0847 29.0403C24.6708 29.6263 25 30.4212 25 31.25V46.875H43.75V28.125C43.75 27.7106 43.9146 27.3132 44.2076 27.0201C44.5007 26.7271 44.8981 26.5625 45.3125 26.5625C45.7269 26.5625 46.1243 26.7271 46.4174 27.0201C46.7104 27.3132 46.875 27.7106 46.875 28.125V46.875H48.4375C48.8519 46.875 49.2493 47.0396 49.5424 47.3326C49.8354 47.6257 50 48.0231 50 48.4375C50 48.8519 49.8354 49.2493 49.5424 49.5424C49.2493 49.8354 48.8519 50 48.4375 50H1.5625C1.1481 50 0.750671 49.8354 0.457646 49.5424C0.16462 49.2493 4.52017e-08 48.8519 4.52017e-08 48.4375C4.52017e-08 48.0231 0.16462 47.6257 0.457646 47.3326C0.750671 47.0396 1.1481 46.875 1.5625 46.875H3.125V28.125C3.125 27.7106 3.28962 27.3132 3.58265 27.0201C3.87567 26.7271 4.2731 26.5625 4.6875 26.5625V26.5625ZM12.5 46.875H21.875V31.25H12.5V46.875ZM28.125 31.25C28.125 30.4212 28.4542 29.6263 29.0403 29.0403C29.6263 28.4542 30.4212 28.125 31.25 28.125H37.5C38.3288 28.125 39.1237 28.4542 39.7097 29.0403C40.2958 29.6263 40.625 30.4212 40.625 31.25V40.625C40.625 41.4538 40.2958 42.2487 39.7097 42.8347C39.1237 43.4208 38.3288 43.75 37.5 43.75H31.25C30.4212 43.75 29.6263 43.4208 29.0403 42.8347C28.4542 42.2487 28.125 41.4538 28.125 40.625V31.25ZM37.5 31.25H31.25V40.625H37.5V31.25Z" fill="white"/>
</g>
<defs>
<clipPath id="clip0">
<rect width="50" height="50" fill="white"/>
</clipPath>
</defs>
</svg>
